<svg id="svg" version="1.1" xmlns="http://www.w3.org/2000/svg" xmlns:xlink="http://www.w3.org/1999/xlink" width="400" height="400" viewBox="0, 0, 400,400"><g id="svgg"><path id="path0" d="M122.722 46.113 C 122.550 55.981,122.251 55.222,126.477 55.655 C 128.305 55.842,131.420 56.168,133.400 56.378 C 149.727 58.115,148.431 58.343,154.236 52.714 C 156.746 50.280,158.800 48.062,158.800 47.785 C 158.800 47.221,155.070 40.954,153.743 39.288 C 152.747 38.038,147.814 37.676,131.335 37.643 L 122.870 37.626 122.722 46.113 M177.800 59.069 C 173.674 59.975,166.915 62.835,166.531 63.837 C 165.990 65.246,171.141 75.406,176.246 83.000 C 180.981 90.042,180.472 89.722,184.747 88.347 C 193.220 85.621,199.068 83.207,199.522 82.248 C 199.743 81.782,200.511 79.870,201.229 78.000 C 202.835 73.817,203.541 72.714,206.149 70.309 L 208.200 68.418 206.600 67.038 C 199.554 60.962,186.111 57.242,177.800 59.069 M103.800 76.369 C 74.971 90.824,58.881 98.728,38.200 108.594 C 35.780 109.749,31.857 111.624,29.481 112.763 C 27.106 113.901,25.073 115.066,24.963 115.353 C 24.777 115.837,26.836 125.789,28.159 130.800 C 28.479 132.010,29.119 134.440,29.582 136.200 C 30.045 137.960,30.576 139.850,30.763 140.400 C 30.950 140.950,31.505 142.750,31.995 144.400 C 32.486 146.050,33.048 147.813,33.244 148.319 C 33.866 149.923,33.647 150.585,32.300 151.167 C 31.585 151.477,29.933 152.241,28.629 152.865 C 27.325 153.489,26.115 154.000,25.939 154.000 C 24.981 154.000,20.349 156.488,20.517 156.913 C 25.318 169.035,28.097 174.400,29.577 174.400 C 30.253 174.400,33.383 173.068,38.305 170.686 C 40.396 169.674,41.600 169.867,41.600 171.216 C 41.600 171.835,47.654 185.858,51.091 193.200 C 54.970 201.486,64.505 220.343,67.879 226.400 C 70.674 231.419,72.800 235.303,72.800 235.392 C 72.800 235.443,74.510 238.502,76.600 242.190 C 78.690 245.877,80.400 248.954,80.400 249.029 C 80.400 249.104,80.965 250.118,81.656 251.282 C 82.347 252.447,83.247 253.985,83.656 254.700 C 85.489 257.902,86.178 259.117,87.119 260.800 C 87.672 261.790,91.398 268.360,95.398 275.400 C 105.883 293.850,108.767 299.007,112.177 305.400 C 114.749 310.221,114.800 310.247,114.800 306.732 C 114.800 303.388,115.819 299.914,120.996 285.600 C 122.468 281.530,124.003 277.210,124.406 276.000 C 125.393 273.039,127.179 267.987,127.588 267.000 C 127.770 266.560,128.136 265.570,128.400 264.800 C 128.664 264.030,129.024 263.040,129.200 262.600 C 129.376 262.160,129.736 261.170,130.000 260.400 C 130.264 259.630,130.633 258.640,130.820 258.200 C 131.006 257.760,131.558 256.197,132.046 254.726 L 132.934 252.052 132.471 237.326 C 131.586 209.151,131.206 190.035,130.994 163.000 C 130.876 148.040,130.674 134.380,130.544 132.645 L 130.307 129.489 129.253 130.844 C 126.246 134.712,118.065 143.908,113.191 148.900 C 108.709 153.489,108.789 153.488,100.501 149.186 C 94.234 145.934,93.324 145.738,93.213 147.614 C 93.178 148.198,90.687 149.200,89.268 149.200 L 87.659 149.200 79.994 168.500 C 72.005 188.617,71.566 189.600,70.578 189.600 C 69.192 189.600,69.886 187.475,77.640 167.958 L 85.764 147.512 85.053 146.274 C 83.018 142.727,84.089 139.180,87.642 137.703 C 92.049 135.870,94.398 137.103,94.797 141.461 L 95.000 143.670 101.189 146.835 C 104.592 148.576,107.754 150.000,108.214 150.000 C 109.496 150.000,115.325 143.803,125.480 131.644 L 130.361 125.800 130.474 100.500 C 130.641 63.244,130.643 63.474,130.200 63.400 C 129.980 63.363,118.100 69.199,103.800 76.369 M180.154 91.700 C 179.218 93.526,170.054 108.129,166.568 113.350 C 163.328 118.201,163.332 118.173,165.731 119.691 C 169.647 122.169,172.564 122.950,178.000 122.976 C 185.202 123.011,184.709 123.321,186.669 117.516 C 187.582 114.812,188.832 111.207,189.446 109.504 L 190.563 106.407 189.683 104.704 C 189.199 103.767,188.484 102.460,188.093 101.800 C 185.475 97.380,184.404 95.482,183.184 93.101 C 181.628 90.067,181.113 89.829,180.154 91.700 M184.400 146.668 C 169.584 147.870,155.305 160.207,152.072 174.600 C 151.825 175.700,151.438 177.445,151.211 178.477 C 148.607 190.361,154.875 205.594,164.332 210.366 C 167.177 211.802,167.528 211.710,168.340 209.325 C 168.626 208.486,169.730 205.550,170.793 202.800 C 171.856 200.050,173.748 195.100,174.996 191.800 C 178.158 183.444,180.415 177.544,180.811 176.600 C 181.196 175.685,184.593 166.472,186.195 162.000 C 188.178 156.462,189.631 151.017,189.716 148.800 L 189.800 146.600 188.000 146.561 C 187.010 146.540,185.390 146.588,184.400 146.668 M118.069 316.300 C 118.144 316.465,120.731 321.640,123.818 327.800 C 126.906 333.960,130.125 340.530,130.973 342.400 C 133.918 348.896,134.496 350.000,134.952 350.000 C 135.338 350.000,153.011 336.020,156.541 332.922 C 157.983 331.657,157.955 331.636,152.200 329.678 C 149.560 328.780,145.330 327.306,142.800 326.402 C 140.270 325.499,136.850 324.312,135.200 323.763 C 133.550 323.215,131.840 322.603,131.400 322.403 C 130.960 322.204,129.790 321.777,128.800 321.456 C 126.026 320.556,121.981 318.590,120.103 317.230 C 118.414 316.005,117.811 315.730,118.069 316.300 " stroke="none" fill="#ef704f" fill-rule="evenodd"></path><path id="path1" d="M257.600 11.600 C 257.600 11.861,250.741 12.000,237.824 12.000 C 225.071 12.000,217.959 12.142,217.800 12.400 C 217.641 12.658,210.529 12.800,197.776 12.800 C 185.106 12.800,178.000 12.941,178.000 13.193 C 178.000 13.441,170.786 13.658,158.300 13.783 C 132.666 14.040,122.400 14.335,122.400 14.816 C 122.400 15.027,122.128 15.200,121.795 15.200 C 120.458 15.200,117.600 17.505,117.600 18.582 C 117.600 18.922,117.420 19.200,117.200 19.200 C 116.980 19.200,116.800 19.740,116.800 20.400 C 116.800 21.060,116.620 21.600,116.400 21.600 C 116.180 21.600,116.000 21.960,116.000 22.400 C 116.000 23.093,115.733 23.200,114.000 23.200 C 112.900 23.200,112.000 23.380,112.000 23.600 C 112.000 23.820,111.788 24.000,111.528 24.000 C 110.898 24.000,108.400 26.755,108.400 27.450 C 108.400 27.753,108.220 28.000,108.000 28.000 C 107.741 28.000,107.600 32.933,107.600 42.000 C 107.600 51.067,107.459 56.000,107.200 56.000 C 106.980 56.000,106.800 56.540,106.800 57.200 C 106.800 57.893,106.589 58.400,106.300 58.401 C 106.025 58.401,103.105 59.751,99.811 61.401 C 96.517 63.050,93.592 64.400,93.311 64.400 C 93.030 64.400,92.800 64.580,92.800 64.800 C 92.800 65.020,92.440 65.200,92.000 65.200 C 91.560 65.200,91.200 65.380,91.200 65.600 C 91.200 65.820,90.840 66.000,90.400 66.000 C 89.960 66.000,89.600 66.180,89.600 66.400 C 89.600 66.620,89.240 66.800,88.800 66.800 C 88.360 66.800,88.000 66.980,88.000 67.200 C 88.000 67.420,87.640 67.600,87.200 67.600 C 86.760 67.600,86.400 67.780,86.400 68.000 C 86.400 68.220,86.040 68.400,85.600 68.400 C 85.160 68.400,84.800 68.580,84.800 68.800 C 84.800 69.020,84.440 69.200,84.000 69.200 C 83.560 69.200,83.200 69.380,83.200 69.600 C 83.200 69.820,82.840 70.000,82.400 70.000 C 81.960 70.000,81.600 70.180,81.600 70.400 C 81.600 70.620,81.240 70.800,80.800 70.800 C 80.360 70.800,79.999 70.935,79.999 71.100 C 79.998 71.265,79.008 71.850,77.800 72.400 C 76.592 72.950,75.602 73.535,75.601 73.700 C 75.601 73.865,75.240 74.000,74.800 74.000 C 74.360 74.000,74.000 74.180,74.000 74.400 C 74.000 74.620,73.724 74.800,73.387 74.800 C 73.050 74.800,71.476 75.430,69.889 76.200 C 68.301 76.970,66.777 77.600,66.501 77.600 C 66.226 77.600,66.000 77.780,66.000 78.000 C 66.000 78.220,65.640 78.400,65.200 78.400 C 64.760 78.400,64.400 78.580,64.400 78.800 C 64.400 79.020,64.040 79.200,63.600 79.200 C 63.160 79.200,62.799 79.335,62.799 79.500 C 62.798 79.665,61.808 80.250,60.600 80.800 C 59.392 81.350,58.402 81.935,58.401 82.100 C 58.401 82.265,58.040 82.400,57.600 82.400 C 57.160 82.400,56.800 82.580,56.800 82.800 C 56.800 83.020,56.440 83.200,56.000 83.200 C 55.560 83.200,55.200 83.380,55.200 83.600 C 55.200 83.820,54.840 84.000,54.400 84.000 C 53.960 84.000,53.600 84.180,53.600 84.400 C 53.600 84.620,53.240 84.800,52.800 84.800 C 52.360 84.800,52.000 84.980,52.000 85.200 C 52.000 85.420,51.748 85.600,51.441 85.600 C 51.133 85.600,49.855 86.140,48.600 86.800 C 47.345 87.460,46.067 88.000,45.759 88.000 C 45.452 88.000,45.200 88.180,45.200 88.400 C 45.200 88.620,44.840 88.800,44.400 88.800 C 43.960 88.800,43.600 88.980,43.600 89.200 C 43.600 89.420,43.240 89.600,42.800 89.600 C 42.360 89.600,42.000 89.780,42.000 90.000 C 42.000 90.220,41.640 90.400,41.200 90.400 C 40.760 90.400,40.400 90.580,40.400 90.800 C 40.400 91.020,40.040 91.200,39.600 91.200 C 39.160 91.200,38.800 91.380,38.800 91.600 C 38.800 91.820,38.485 92.001,38.100 92.002 C 37.715 92.003,36.514 92.453,35.432 93.002 C 34.350 93.551,33.225 94.000,32.932 94.000 C 32.639 94.000,32.400 94.180,32.400 94.400 C 32.400 94.620,32.040 94.800,31.600 94.800 C 31.160 94.800,30.800 94.980,30.800 95.200 C 30.800 95.420,30.440 95.600,30.000 95.600 C 29.560 95.600,29.200 95.780,29.200 96.000 C 29.200 96.220,28.840 96.400,28.400 96.400 C 27.960 96.400,27.600 96.580,27.600 96.800 C 27.600 97.020,27.240 97.200,26.800 97.200 C 26.360 97.200,26.000 97.380,26.000 97.600 C 26.000 97.820,25.811 98.000,25.581 98.000 C 25.350 98.000,24.416 98.360,23.506 98.800 C 22.595 99.240,21.614 99.600,21.325 99.600 C 21.036 99.600,20.800 99.780,20.800 100.000 C 20.800 100.220,20.440 100.400,20.000 100.400 C 19.560 100.400,19.200 100.580,19.200 100.800 C 19.200 101.020,18.840 101.200,18.400 101.200 C 17.960 101.200,17.600 101.380,17.600 101.600 C 17.600 101.820,17.240 102.000,16.800 102.000 C 16.360 102.000,16.000 102.180,16.000 102.400 C 16.000 102.620,15.640 102.800,15.200 102.800 C 14.760 102.800,14.400 102.980,14.400 103.200 C 14.400 103.420,14.116 103.600,13.769 103.600 C 11.542 103.600,8.585 109.034,8.947 112.461 C 9.437 117.089,9.692 118.615,10.039 118.980 C 10.237 119.189,10.400 120.123,10.400 121.056 C 10.400 121.989,10.580 122.864,10.800 123.000 C 11.020 123.136,11.200 124.047,11.200 125.024 C 11.200 126.001,11.380 126.800,11.600 126.800 C 11.820 126.800,12.000 127.520,12.000 128.400 C 12.000 129.280,12.180 130.000,12.400 130.000 C 12.620 130.000,12.800 130.709,12.800 131.576 C 12.800 132.443,12.980 133.264,13.200 133.400 C 13.420 133.536,13.600 134.267,13.600 135.024 C 13.600 135.781,13.780 136.400,14.000 136.400 C 14.220 136.400,14.400 137.019,14.400 137.776 C 14.400 138.533,14.580 139.264,14.800 139.400 C 15.925 140.095,15.202 141.845,13.500 142.547 C 12.565 142.932,11.487 143.417,11.105 143.624 C 10.723 143.831,10.138 144.000,9.805 144.000 C 9.472 144.000,9.200 144.180,9.200 144.400 C 9.200 144.620,8.924 144.800,8.587 144.800 C 7.791 144.800,5.200 147.391,5.200 148.187 C 5.200 148.524,5.020 148.800,4.800 148.800 C 4.559 148.800,4.400 150.467,4.400 153.000 C 4.400 155.533,4.559 157.200,4.800 157.200 C 5.020 157.200,5.200 157.740,5.200 158.400 C 5.200 159.060,5.380 159.600,5.600 159.600 C 5.820 159.600,6.000 160.140,6.000 160.800 C 6.000 161.460,6.180 162.000,6.400 162.000 C 6.620 162.000,6.800 162.360,6.800 162.800 C 6.800 163.240,6.980 163.600,7.200 163.600 C 7.420 163.600,7.600 164.140,7.600 164.800 C 7.600 165.460,7.756 166.000,7.948 166.000 C 8.139 166.000,8.394 166.609,8.515 167.354 C 8.758 168.850,12.700 177.322,13.252 177.533 C 13.443 177.607,13.600 178.012,13.600 178.433 C 13.600 178.855,13.780 179.200,14.000 179.200 C 14.220 179.200,14.400 179.560,14.400 180.000 C 14.400 180.440,14.580 180.800,14.800 180.800 C 15.020 180.800,15.200 181.049,15.200 181.354 C 15.200 182.130,20.203 187.200,20.969 187.200 C 21.316 187.200,21.600 187.380,21.600 187.600 C 21.600 187.820,21.960 188.000,22.400 188.000 C 22.840 188.000,23.200 188.180,23.200 188.400 C 23.200 188.620,23.729 188.800,24.376 188.800 C 25.023 188.800,25.664 188.980,25.800 189.200 C 25.936 189.420,27.657 189.600,29.624 189.600 C 32.933 189.600,33.200 189.660,33.200 190.400 C 33.200 190.840,33.380 191.200,33.600 191.200 C 33.820 191.200,34.000 191.650,34.000 192.200 C 34.000 192.750,34.180 193.200,34.400 193.200 C 34.620 193.200,34.800 193.560,34.800 194.000 C 34.800 194.440,34.980 194.800,35.200 194.800 C 35.420 194.800,35.600 195.160,35.600 195.600 C 35.600 196.040,35.780 196.400,36.000 196.400 C 36.220 196.400,36.400 196.760,36.400 197.200 C 36.400 197.640,36.580 198.000,36.800 198.000 C 37.020 198.000,37.200 198.272,37.200 198.605 C 37.200 198.938,37.364 199.523,37.564 199.905 C 37.765 200.287,38.950 202.760,40.199 205.400 C 41.448 208.040,42.815 210.892,43.235 211.738 C 43.656 212.584,44.000 213.529,44.000 213.838 C 44.000 214.147,44.180 214.400,44.400 214.400 C 44.620 214.400,44.800 214.760,44.800 215.200 C 44.800 215.640,44.980 216.000,45.200 216.000 C 45.420 216.000,45.600 216.360,45.600 216.800 C 45.600 217.240,45.780 217.600,46.000 217.600 C 46.220 217.600,46.400 217.945,46.400 218.367 C 46.400 218.788,46.535 219.193,46.700 219.267 C 46.865 219.340,47.448 220.300,47.995 221.400 C 48.542 222.500,49.082 223.490,49.195 223.600 C 49.587 223.982,50.851 226.204,51.071 226.900 C 51.193 227.285,51.452 227.600,51.647 227.600 C 51.841 227.600,52.000 227.960,52.000 228.400 C 52.000 228.840,52.180 229.200,52.400 229.200 C 52.620 229.200,52.800 229.560,52.800 230.000 C 52.800 230.440,52.980 230.800,53.200 230.800 C 53.420 230.800,53.600 231.160,53.600 231.600 C 53.600 232.040,53.780 232.400,54.000 232.400 C 54.220 232.400,54.400 232.760,54.400 233.200 C 54.400 233.640,54.580 234.000,54.800 234.000 C 55.020 234.000,55.200 234.360,55.200 234.800 C 55.200 235.240,55.380 235.600,55.600 235.600 C 55.820 235.600,56.000 235.870,56.000 236.200 C 56.000 236.530,56.180 236.800,56.400 236.800 C 56.620 236.800,56.800 237.070,56.800 237.400 C 56.800 237.730,56.980 238.000,57.200 238.000 C 57.420 238.000,57.600 238.360,57.600 238.800 C 57.600 239.240,57.780 239.600,58.000 239.600 C 58.220 239.600,58.400 239.831,58.400 240.113 C 58.400 240.768,61.233 246.156,61.671 246.333 C 61.852 246.407,62.000 246.812,62.000 247.233 C 62.000 247.655,62.180 248.000,62.400 248.000 C 62.620 248.000,62.800 248.345,62.800 248.767 C 62.800 249.188,62.935 249.593,63.100 249.667 C 63.476 249.834,64.775 251.964,65.071 252.900 C 65.193 253.285,65.452 253.600,65.647 253.600 C 65.841 253.600,66.000 253.960,66.000 254.400 C 66.000 254.840,66.136 255.200,66.302 255.200 C 66.469 255.200,66.829 255.706,67.103 256.325 C 67.376 256.944,67.960 257.836,68.400 258.308 C 68.840 258.780,69.200 259.444,69.200 259.783 C 69.200 260.122,69.380 260.400,69.600 260.400 C 69.820 260.400,70.000 260.760,70.000 261.200 C 70.000 261.640,70.180 262.000,70.400 262.000 C 70.620 262.000,70.800 262.320,70.800 262.712 C 70.800 263.103,71.160 263.683,71.600 264.000 C 72.040 264.317,72.400 264.897,72.400 265.288 C 72.400 265.680,72.580 266.000,72.800 266.000 C 73.020 266.000,73.200 266.360,73.200 266.800 C 73.200 267.240,73.380 267.600,73.600 267.600 C 73.820 267.600,74.000 267.945,74.000 268.367 C 74.000 268.788,74.150 269.193,74.334 269.267 C 74.518 269.340,75.350 270.705,76.184 272.300 C 77.017 273.895,77.857 275.200,78.050 275.200 C 78.242 275.200,78.400 275.560,78.400 276.000 C 78.400 276.440,78.580 276.800,78.800 276.800 C 79.020 276.800,79.200 277.145,79.200 277.567 C 79.200 277.988,79.335 278.393,79.500 278.467 C 79.876 278.634,81.175 280.764,81.471 281.700 C 81.593 282.085,81.852 282.400,82.047 282.400 C 82.241 282.400,82.400 282.745,82.400 283.167 C 82.400 283.588,82.535 283.993,82.700 284.067 C 83.076 284.234,84.375 286.364,84.671 287.300 C 84.793 287.685,85.052 288.000,85.247 288.000 C 85.441 288.000,85.600 288.360,85.600 288.800 C 85.600 289.240,85.780 289.600,86.000 289.600 C 86.220 289.600,86.400 289.870,86.400 290.200 C 86.400 290.530,86.580 290.800,86.800 290.800 C 87.020 290.800,87.200 291.036,87.200 291.325 C 87.200 291.613,87.560 292.236,88.000 292.708 C 88.440 293.180,88.800 293.844,88.800 294.183 C 88.800 294.522,88.980 294.800,89.200 294.800 C 89.420 294.800,89.600 295.160,89.600 295.600 C 89.600 296.040,89.780 296.400,90.000 296.400 C 90.220 296.400,90.400 296.678,90.400 297.017 C 90.400 297.356,90.745 298.004,91.167 298.456 C 91.588 298.909,92.041 299.708,92.172 300.231 C 92.304 300.755,92.949 302.095,93.606 303.209 C 94.263 304.324,94.800 305.407,94.800 305.618 C 94.800 305.828,94.946 306.000,95.125 306.000 C 95.304 306.000,95.698 306.630,96.000 307.400 C 96.302 308.170,96.696 308.800,96.875 308.800 C 97.054 308.800,97.200 309.160,97.200 309.600 C 97.200 310.040,97.380 310.400,97.600 310.400 C 97.820 310.400,98.000 310.760,98.000 311.200 C 98.000 311.640,98.158 312.000,98.351 312.000 C 98.545 312.000,98.927 312.540,99.200 313.200 C 99.473 313.860,99.855 314.400,100.049 314.400 C 100.242 314.400,100.400 314.760,100.400 315.200 C 100.400 315.640,100.580 316.000,100.800 316.000 C 101.020 316.000,101.200 316.360,101.200 316.800 C 101.200 317.240,101.380 317.600,101.600 317.600 C 101.820 317.600,102.000 317.960,102.000 318.400 C 102.000 318.840,102.180 319.200,102.400 319.200 C 102.620 319.200,102.800 319.560,102.800 320.000 C 102.800 320.440,102.936 320.800,103.102 320.800 C 103.269 320.800,103.659 321.385,103.970 322.100 C 104.281 322.815,104.640 323.490,104.768 323.600 C 105.154 323.933,106.434 326.153,106.671 326.900 C 106.793 327.285,107.052 327.600,107.247 327.600 C 107.441 327.600,107.600 327.960,107.600 328.400 C 107.600 328.840,107.780 329.200,108.000 329.200 C 108.220 329.200,108.401 329.515,108.402 329.900 C 108.404 330.285,108.674 331.116,109.002 331.746 C 109.331 332.376,109.600 333.141,109.600 333.446 C 109.600 333.751,109.780 334.000,110.000 334.000 C 110.220 334.000,110.400 334.360,110.400 334.800 C 110.400 335.240,110.580 335.600,110.800 335.600 C 111.020 335.600,111.200 335.960,111.200 336.400 C 111.200 336.840,111.380 337.200,111.600 337.200 C 111.820 337.200,112.000 337.560,112.000 338.000 C 112.000 338.440,112.146 338.800,112.325 338.800 C 112.504 338.800,112.898 339.430,113.200 340.200 C 113.502 340.970,113.896 341.600,114.075 341.600 C 114.254 341.600,114.400 341.872,114.400 342.205 C 114.400 342.538,114.557 343.123,114.750 343.505 C 116.248 346.480,116.800 347.753,116.800 348.238 C 116.800 348.547,116.980 348.800,117.200 348.800 C 117.420 348.800,117.600 349.160,117.600 349.600 C 117.600 350.040,117.780 350.400,118.000 350.400 C 118.220 350.400,118.400 350.760,118.400 351.200 C 118.400 351.640,118.580 352.000,118.800 352.000 C 119.020 352.000,119.200 352.360,119.200 352.800 C 119.200 353.240,119.380 353.600,119.600 353.600 C 119.820 353.600,120.000 354.050,120.000 354.600 C 120.000 355.150,120.180 355.600,120.400 355.600 C 120.620 355.600,120.800 355.960,120.800 356.400 C 120.800 356.840,120.980 357.200,121.200 357.200 C 121.420 357.200,121.600 357.473,121.600 357.807 C 121.600 359.171,127.624 364.400,129.195 364.400 C 129.638 364.400,130.000 364.580,130.000 364.800 C 130.000 365.334,139.070 365.334,139.400 364.800 C 139.536 364.580,139.963 364.400,140.348 364.400 C 140.734 364.400,141.436 364.040,141.908 363.600 C 142.380 363.160,142.972 362.800,143.223 362.800 C 143.474 362.800,144.183 362.260,144.800 361.600 C 145.417 360.940,146.127 360.400,146.379 360.400 C 146.630 360.400,147.270 359.995,147.799 359.500 C 148.995 358.382,149.515 357.976,150.874 357.105 C 151.465 356.726,152.372 356.007,152.890 355.508 C 153.408 355.009,154.634 353.977,155.616 353.215 C 156.597 352.453,157.460 351.688,157.533 351.515 C 157.607 351.342,157.849 351.200,158.073 351.200 C 158.296 351.200,158.983 350.660,159.600 350.000 C 160.684 348.839,162.800 348.310,162.800 349.200 C 162.800 349.420,163.340 349.600,164.000 349.600 C 164.660 349.600,165.200 349.780,165.200 350.000 C 165.200 350.220,165.549 350.400,165.976 350.400 C 166.403 350.400,166.864 350.580,167.000 350.800 C 167.136 351.020,167.687 351.200,168.224 351.200 C 168.761 351.200,169.200 351.380,169.200 351.600 C 169.200 351.820,169.740 352.000,170.400 352.000 C 171.060 352.000,171.600 352.180,171.600 352.400 C 171.600 352.620,172.140 352.800,172.800 352.800 C 173.460 352.800,174.000 352.980,174.000 353.200 C 174.000 353.420,174.362 353.600,174.805 353.600 C 175.248 353.600,175.923 353.759,176.305 353.953 C 177.240 354.429,178.707 355.018,180.400 355.600 C 181.170 355.864,182.160 356.222,182.600 356.395 C 183.040 356.567,184.210 356.942,185.200 357.226 C 186.190 357.511,187.180 357.871,187.400 358.027 C 187.620 358.182,188.565 358.436,189.500 358.590 C 190.435 358.744,191.200 359.034,191.200 359.235 C 191.200 359.436,191.740 359.600,192.400 359.600 C 193.060 359.600,193.600 359.780,193.600 360.000 C 193.600 360.220,194.050 360.400,194.600 360.400 C 195.150 360.400,195.600 360.580,195.600 360.800 C 195.600 361.020,196.140 361.200,196.800 361.200 C 197.460 361.200,198.000 361.380,198.000 361.600 C 198.000 361.820,198.540 362.000,199.200 362.000 C 199.860 362.000,200.400 362.180,200.400 362.400 C 200.400 362.620,200.762 362.800,201.205 362.800 C 201.648 362.800,202.368 362.980,202.805 363.200 C 203.242 363.420,203.958 363.780,204.395 364.000 C 204.832 364.220,205.552 364.400,205.995 364.400 C 206.438 364.400,206.800 364.580,206.800 364.800 C 206.800 365.020,207.340 365.200,208.000 365.200 C 208.660 365.200,209.200 365.380,209.200 365.600 C 209.200 365.820,209.650 366.000,210.200 366.000 C 210.750 366.000,211.200 366.180,211.200 366.400 C 211.200 366.620,211.740 366.800,212.400 366.800 C 213.060 366.800,213.600 366.980,213.600 367.200 C 213.600 367.420,214.039 367.600,214.576 367.600 C 215.113 367.600,215.642 367.744,215.751 367.921 C 215.860 368.097,216.872 368.493,218.000 368.800 C 219.128 369.107,220.140 369.503,220.249 369.679 C 220.358 369.856,220.887 370.000,221.424 370.000 C 221.961 370.000,222.400 370.180,222.400 370.400 C 222.400 370.620,222.940 370.800,223.600 370.800 C 224.260 370.800,224.800 370.980,224.800 371.200 C 224.800 371.420,225.162 371.600,225.605 371.600 C 226.048 371.600,226.723 371.759,227.105 371.953 C 229.576 373.210,235.646 375.200,237.008 375.200 C 237.554 375.200,238.000 375.380,238.000 375.600 C 238.000 375.820,238.540 376.000,239.200 376.000 C 239.860 376.000,240.400 376.180,240.400 376.400 C 240.400 376.620,240.672 376.800,241.005 376.800 C 241.338 376.800,241.968 376.980,242.405 377.200 C 242.842 377.420,243.558 377.780,243.995 378.000 C 244.432 378.220,245.152 378.400,245.595 378.400 C 246.038 378.400,246.400 378.580,246.400 378.800 C 246.400 379.020,246.940 379.200,247.600 379.200 C 248.260 379.200,248.800 379.380,248.800 379.600 C 248.800 379.820,249.340 380.000,250.000 380.000 C 250.660 380.000,251.200 380.180,251.200 380.400 C 251.200 380.620,251.740 380.800,252.400 380.800 C 253.060 380.800,253.600 380.980,253.600 381.200 C 253.600 381.420,254.140 381.600,254.800 381.600 C 255.460 381.600,256.000 381.780,256.000 382.000 C 256.000 382.220,256.540 382.400,257.200 382.400 C 257.860 382.400,258.400 382.580,258.400 382.800 C 258.400 383.020,258.850 383.200,259.400 383.200 C 259.950 383.200,260.400 383.380,260.400 383.600 C 260.400 383.820,260.839 384.000,261.376 384.000 C 261.913 384.000,262.464 384.180,262.600 384.400 C 262.736 384.620,263.377 384.800,264.024 384.800 C 264.671 384.800,265.200 384.980,265.200 385.200 C 265.200 385.420,265.740 385.600,266.400 385.600 C 267.060 385.600,267.600 385.780,267.600 386.000 C 267.600 386.220,268.140 386.400,268.800 386.400 C 269.460 386.400,270.000 386.560,270.000 386.756 C 270.000 386.952,270.630 387.222,271.400 387.356 C 272.170 387.490,273.432 387.710,274.204 387.844 C 274.976 387.979,275.706 388.249,275.827 388.444 C 276.135 388.942,287.491 388.900,287.800 388.400 C 287.936 388.180,288.476 388.000,289.000 388.000 C 289.524 388.000,290.064 387.820,290.200 387.600 C 290.336 387.380,290.887 387.200,291.424 387.200 C 291.961 387.200,292.400 387.020,292.400 386.800 C 292.400 386.580,292.720 386.400,293.112 386.400 C 293.503 386.400,294.083 386.040,294.400 385.600 C 294.717 385.160,295.221 384.800,295.520 384.800 C 296.274 384.800,303.600 377.382,303.600 376.619 C 303.600 376.279,303.750 376.000,303.932 376.000 C 304.115 376.000,304.520 375.505,304.832 374.900 C 305.144 374.295,305.499 373.710,305.623 373.600 C 306.166 373.114,308.353 368.059,308.608 366.700 C 308.763 365.875,309.049 365.200,309.245 365.200 C 309.440 365.200,309.600 364.660,309.600 364.000 C 309.600 363.340,309.780 362.800,310.000 362.800 C 310.220 362.800,310.400 362.361,310.400 361.824 C 310.400 361.287,310.580 360.736,310.800 360.600 C 311.020 360.464,311.200 360.003,311.200 359.576 C 311.200 359.149,311.380 358.800,311.600 358.800 C 311.820 358.800,312.000 358.350,312.000 357.800 C 312.000 357.250,312.180 356.800,312.400 356.800 C 312.620 356.800,312.800 356.350,312.800 355.800 C 312.800 355.250,312.980 354.800,313.200 354.800 C 313.420 354.800,313.600 354.350,313.600 353.800 C 313.600 353.250,313.780 352.800,314.000 352.800 C 314.220 352.800,314.400 352.361,314.400 351.824 C 314.400 351.287,314.580 350.736,314.800 350.600 C 315.020 350.464,315.200 350.003,315.200 349.576 C 315.200 349.149,315.380 348.800,315.600 348.800 C 315.820 348.800,316.000 348.260,316.000 347.600 C 316.000 346.940,316.180 346.400,316.400 346.400 C 316.620 346.400,316.800 346.051,316.800 345.624 C 316.800 345.197,316.980 344.736,317.200 344.600 C 317.420 344.464,317.600 343.913,317.600 343.376 C 317.600 342.839,317.780 342.400,318.000 342.400 C 318.220 342.400,318.400 342.045,318.400 341.612 C 318.400 341.179,318.760 340.183,319.200 339.400 C 319.640 338.617,320.000 337.621,320.000 337.188 C 320.000 336.755,320.180 336.400,320.400 336.400 C 320.620 336.400,320.800 336.038,320.800 335.595 C 320.800 335.152,321.008 334.387,321.262 333.895 C 322.258 331.969,322.400 331.583,322.400 330.805 C 322.400 330.362,322.541 330.000,322.713 330.000 C 322.885 330.000,323.277 329.149,323.584 328.109 C 323.891 327.068,324.379 325.763,324.669 325.209 C 324.958 324.654,325.196 323.795,325.198 323.300 C 325.199 322.805,325.380 322.400,325.600 322.400 C 325.820 322.400,326.000 321.860,326.000 321.200 C 326.000 320.540,326.180 320.000,326.400 320.000 C 326.620 320.000,326.800 319.640,326.800 319.200 C 326.800 318.760,326.980 318.400,327.200 318.400 C 327.420 318.400,327.600 317.860,327.600 317.200 C 327.600 316.540,327.780 316.000,328.000 316.000 C 328.220 316.000,328.400 315.561,328.400 315.024 C 328.400 314.487,328.580 313.936,328.800 313.800 C 329.020 313.664,329.200 313.203,329.200 312.776 C 329.200 312.349,329.380 312.000,329.600 312.000 C 329.820 312.000,330.000 311.460,330.000 310.800 C 330.000 310.140,330.180 309.600,330.400 309.600 C 330.620 309.600,330.800 309.240,330.800 308.800 C 330.800 308.360,330.980 308.000,331.200 308.000 C 331.420 308.000,331.600 307.550,331.600 307.000 C 331.600 306.450,331.780 306.000,332.000 306.000 C 332.220 306.000,332.400 305.460,332.400 304.800 C 332.400 304.140,332.580 303.600,332.800 303.600 C 333.020 303.600,333.200 303.240,333.200 302.800 C 333.200 302.360,333.380 302.000,333.600 302.000 C 333.820 302.000,334.000 301.460,334.000 300.800 C 334.000 300.140,334.147 299.600,334.328 299.600 C 334.508 299.600,334.900 298.700,335.200 297.600 C 335.500 296.500,335.892 295.600,336.072 295.600 C 336.253 295.600,336.400 295.060,336.400 294.400 C 336.400 293.740,336.580 293.200,336.800 293.200 C 337.020 293.200,337.200 292.840,337.200 292.400 C 337.200 291.960,337.380 291.600,337.600 291.600 C 337.820 291.600,338.000 291.238,338.000 290.795 C 338.000 290.352,338.159 289.677,338.353 289.295 C 338.548 288.913,338.929 288.060,339.200 287.400 C 339.471 286.740,339.852 285.887,340.047 285.505 C 340.241 285.123,340.400 284.559,340.400 284.251 C 340.400 283.943,340.669 283.176,340.998 282.546 C 341.326 281.916,341.596 280.905,341.598 280.300 C 341.599 279.695,341.780 279.200,342.000 279.200 C 342.220 279.200,342.400 278.761,342.400 278.224 C 342.400 277.687,342.580 277.136,342.800 277.000 C 343.020 276.864,343.200 276.403,343.200 275.976 C 343.200 275.549,343.380 275.200,343.600 275.200 C 343.820 275.200,344.000 274.750,344.000 274.200 C 344.000 273.650,344.180 273.200,344.400 273.200 C 344.620 273.200,344.800 272.750,344.800 272.200 C 344.800 271.650,344.980 271.200,345.200 271.200 C 345.420 271.200,345.600 270.750,345.600 270.200 C 345.600 269.650,345.780 269.200,346.000 269.200 C 346.220 269.200,346.400 268.761,346.400 268.224 C 346.400 267.687,346.580 267.136,346.800 267.000 C 347.020 266.864,347.200 266.403,347.200 265.976 C 347.200 265.549,347.380 265.200,347.600 265.200 C 347.820 265.200,348.000 264.660,348.000 264.000 C 348.000 263.340,348.180 262.800,348.400 262.800 C 348.620 262.800,348.800 262.451,348.800 262.024 C 348.800 261.597,348.980 261.136,349.200 261.000 C 349.420 260.864,349.600 260.313,349.600 259.776 C 349.600 259.239,349.780 258.800,350.000 258.800 C 350.220 258.800,350.400 258.350,350.400 257.800 C 350.400 257.250,350.580 256.800,350.800 256.800 C 351.020 256.800,351.200 256.451,351.200 256.024 C 351.200 255.597,351.380 255.136,351.600 255.000 C 351.820 254.864,352.000 254.313,352.000 253.776 C 352.000 253.239,352.180 252.800,352.400 252.800 C 352.620 252.800,352.800 252.361,352.800 251.824 C 352.800 251.287,352.980 250.736,353.200 250.600 C 353.420 250.464,353.600 250.003,353.600 249.576 C 353.600 249.149,353.780 248.800,354.000 248.800 C 354.220 248.800,354.400 248.260,354.400 247.600 C 354.400 246.940,354.580 246.400,354.800 246.400 C 355.020 246.400,355.200 246.051,355.200 245.624 C 355.200 245.197,355.380 244.736,355.600 244.600 C 355.820 244.464,356.000 243.928,356.000 243.410 C 356.000 242.891,356.135 242.407,356.300 242.333 C 356.670 242.169,357.953 238.794,358.517 236.500 C 358.747 235.565,359.084 234.800,359.267 234.800 C 359.450 234.800,359.600 234.260,359.600 233.600 C 359.600 232.940,359.780 232.400,360.000 232.400 C 360.220 232.400,360.400 231.961,360.400 231.424 C 360.400 230.887,360.580 230.336,360.800 230.200 C 361.020 230.064,361.200 229.603,361.200 229.176 C 361.200 228.749,361.380 228.400,361.600 228.400 C 361.820 228.400,362.000 227.860,362.000 227.200 C 362.000 226.540,362.180 226.000,362.400 226.000 C 362.620 226.000,362.800 225.640,362.800 225.200 C 362.800 224.760,362.980 224.400,363.200 224.400 C 363.420 224.400,363.600 223.950,363.600 223.400 C 363.600 222.850,363.780 222.400,364.000 222.400 C 364.220 222.400,364.400 221.860,364.400 221.200 C 364.400 220.540,364.580 220.000,364.800 220.000 C 365.020 220.000,365.200 219.640,365.200 219.200 C 365.200 218.760,365.380 218.400,365.600 218.400 C 365.820 218.400,366.000 217.860,366.000 217.200 C 366.000 216.540,366.180 216.000,366.400 216.000 C 366.620 216.000,366.800 215.651,366.800 215.224 C 366.800 214.797,366.980 214.336,367.200 214.200 C 367.420 214.064,367.600 213.513,367.600 212.976 C 367.600 212.439,367.780 212.000,368.000 212.000 C 368.220 212.000,368.400 211.460,368.400 210.800 C 368.400 210.140,368.580 209.600,368.800 209.600 C 369.020 209.600,369.200 209.240,369.200 208.800 C 369.200 208.360,369.380 208.000,369.600 208.000 C 369.820 208.000,370.000 207.638,370.000 207.195 C 370.000 206.752,370.159 206.077,370.353 205.695 C 370.548 205.313,370.929 204.460,371.200 203.800 C 371.471 203.140,371.852 202.287,372.047 201.905 C 372.241 201.523,372.400 200.848,372.400 200.405 C 372.400 199.962,372.541 199.600,372.713 199.600 C 372.885 199.600,373.271 198.745,373.571 197.700 C 373.871 196.655,374.250 195.620,374.413 195.400 C 374.576 195.180,374.836 194.235,374.990 193.300 C 375.144 192.365,375.434 191.600,375.635 191.600 C 375.836 191.600,376.000 191.150,376.000 190.600 C 376.000 190.050,376.180 189.600,376.400 189.600 C 376.620 189.600,376.800 189.251,376.800 188.824 C 376.800 188.397,376.980 187.936,377.200 187.800 C 377.420 187.664,377.600 187.113,377.600 186.576 C 377.600 186.039,377.780 185.600,378.000 185.600 C 378.220 185.600,378.400 185.161,378.400 184.624 C 378.400 184.087,378.580 183.536,378.800 183.400 C 379.020 183.264,379.200 182.803,379.200 182.376 C 379.200 181.949,379.380 181.600,379.600 181.600 C 379.820 181.600,380.000 181.060,380.000 180.400 C 380.000 179.740,380.180 179.200,380.400 179.200 C 380.620 179.200,380.800 178.851,380.800 178.424 C 380.800 177.997,380.980 177.536,381.200 177.400 C 381.420 177.264,381.600 176.713,381.600 176.176 C 381.600 175.639,381.780 175.200,382.000 175.200 C 382.220 175.200,382.400 174.750,382.400 174.200 C 382.400 173.650,382.580 173.200,382.800 173.200 C 383.020 173.200,383.200 172.851,383.200 172.424 C 383.200 171.997,383.380 171.536,383.600 171.400 C 383.820 171.264,384.000 170.713,384.000 170.176 C 384.000 169.639,384.180 169.200,384.400 169.200 C 384.620 169.200,384.800 168.761,384.800 168.224 C 384.800 167.687,384.980 167.136,385.200 167.000 C 385.420 166.864,385.600 166.403,385.600 165.976 C 385.600 165.549,385.780 165.200,386.000 165.200 C 386.220 165.200,386.400 164.660,386.400 164.000 C 386.400 163.340,386.580 162.800,386.800 162.800 C 387.020 162.800,387.200 162.451,387.200 162.024 C 387.200 161.597,387.380 161.136,387.600 161.000 C 387.820 160.864,388.000 160.313,388.000 159.776 C 388.000 159.239,388.180 158.800,388.400 158.800 C 388.620 158.800,388.800 158.474,388.800 158.075 C 388.800 157.676,389.160 156.605,389.600 155.694 C 390.040 154.784,390.400 153.871,390.400 153.665 C 390.400 153.460,390.669 152.776,390.998 152.146 C 391.326 151.516,391.596 150.505,391.598 149.900 C 391.599 149.295,391.780 148.800,392.000 148.800 C 392.220 148.800,392.400 148.260,392.400 147.600 C 392.400 146.940,392.580 146.400,392.800 146.400 C 393.020 146.400,393.200 146.040,393.200 145.600 C 393.200 145.160,393.380 144.800,393.600 144.800 C 393.820 144.800,394.000 144.271,394.000 143.624 C 394.000 142.977,394.180 142.336,394.400 142.200 C 394.620 142.064,394.800 141.333,394.800 140.576 C 394.800 139.819,394.980 139.200,395.200 139.200 C 395.451 139.200,395.600 136.667,395.600 132.400 C 395.600 128.133,395.451 125.600,395.200 125.600 C 394.980 125.600,394.800 124.880,394.800 124.000 C 394.800 123.120,394.620 122.400,394.400 122.400 C 394.180 122.400,394.000 122.040,394.000 121.600 C 394.000 121.160,393.820 120.800,393.600 120.800 C 393.380 120.800,393.200 120.440,393.200 120.000 C 393.200 119.560,393.020 119.200,392.800 119.200 C 392.580 119.200,392.400 118.840,392.400 118.400 C 392.400 117.960,392.240 117.600,392.043 117.600 C 391.847 117.600,391.574 117.152,391.437 116.605 C 391.120 115.344,385.241 109.480,383.620 108.808 C 382.892 108.507,382.400 108.009,382.400 107.575 C 382.400 107.175,382.220 106.736,382.000 106.600 C 381.757 106.450,381.600 103.529,381.600 99.176 C 381.600 94.659,381.452 92.000,381.200 92.000 C 380.963 92.000,380.800 90.533,380.800 88.400 C 380.800 86.267,380.637 84.800,380.400 84.800 C 380.178 84.800,380.000 83.741,380.000 82.424 C 380.000 81.117,379.820 79.936,379.600 79.800 C 379.380 79.664,379.200 78.663,379.200 77.576 C 379.200 76.489,379.020 75.600,378.800 75.600 C 378.580 75.600,378.400 74.801,378.400 73.824 C 378.400 72.847,378.220 71.936,378.000 71.800 C 377.780 71.664,377.600 70.843,377.600 69.976 C 377.600 69.109,377.420 68.400,377.200 68.400 C 376.980 68.400,376.800 67.860,376.800 67.200 C 376.800 66.540,376.620 66.000,376.400 66.000 C 376.180 66.000,376.000 65.280,376.000 64.400 C 376.000 63.520,375.843 62.800,375.652 62.800 C 375.460 62.800,375.185 61.907,375.040 60.816 C 374.895 59.725,374.602 58.725,374.388 58.593 C 374.175 58.461,374.000 58.003,374.000 57.576 C 374.000 57.149,373.820 56.800,373.600 56.800 C 373.380 56.800,373.200 56.566,373.200 56.280 C 373.200 55.544,372.259 53.607,371.900 53.603 C 371.735 53.601,371.600 53.333,371.600 53.007 C 371.600 51.758,365.442 45.600,364.193 45.600 C 363.867 45.600,363.600 45.420,363.600 45.200 C 363.600 44.980,363.240 44.800,362.800 44.800 C 362.360 44.800,362.000 44.664,362.000 44.497 C 362.000 43.406,349.647 42.554,349.000 43.600 C 348.864 43.820,348.420 44.000,348.014 44.000 C 345.975 44.000,338.000 50.514,338.000 52.179 C 338.000 52.521,337.820 52.800,337.600 52.800 C 337.380 52.800,337.200 53.160,337.200 53.600 C 337.200 54.040,337.020 54.400,336.800 54.400 C 336.580 54.400,336.400 54.760,336.400 55.200 C 336.400 55.640,336.220 56.000,336.000 56.000 C 335.780 56.000,335.600 56.349,335.600 56.776 C 335.600 57.203,335.420 57.664,335.200 57.800 C 334.980 57.936,334.800 58.566,334.800 59.200 C 334.800 59.834,334.620 60.464,334.400 60.600 C 334.180 60.736,334.000 61.636,334.000 62.600 C 334.000 63.564,333.820 64.464,333.600 64.600 C 333.371 64.742,333.200 66.804,333.200 69.424 C 333.200 72.476,333.054 74.000,332.761 74.000 C 332.465 74.000,332.410 74.680,332.592 76.100 C 333.104 80.105,333.265 89.600,332.821 89.600 C 332.589 89.600,332.400 89.420,332.400 89.200 C 332.400 88.980,331.860 88.800,331.200 88.800 C 330.540 88.800,330.000 88.620,330.000 88.400 C 330.000 88.180,329.460 88.000,328.800 88.000 C 328.140 88.000,327.600 87.820,327.600 87.600 C 327.600 87.380,327.060 87.200,326.400 87.200 C 325.740 87.200,325.200 87.020,325.200 86.800 C 325.200 86.580,324.750 86.400,324.200 86.400 C 323.650 86.400,323.200 86.220,323.200 86.000 C 323.200 85.780,322.660 85.600,322.000 85.600 C 321.340 85.600,320.800 85.420,320.800 85.200 C 320.800 84.980,320.438 84.800,319.995 84.800 C 319.552 84.800,318.832 84.620,318.395 84.400 C 317.958 84.180,317.242 83.820,316.805 83.600 C 316.368 83.380,315.659 83.200,315.229 83.200 C 314.799 83.200,314.336 83.020,314.200 82.800 C 314.064 82.580,313.513 82.400,312.976 82.400 C 312.439 82.400,312.000 82.220,312.000 82.000 C 312.000 81.780,311.460 81.600,310.800 81.600 C 310.140 81.600,309.600 81.420,309.600 81.200 C 309.600 80.980,309.060 80.800,308.400 80.800 C 307.740 80.800,307.200 80.620,307.200 80.400 C 307.200 80.180,306.744 80.000,306.186 80.000 L 305.173 80.000 305.379 64.700 C 305.644 44.980,305.948 36.693,306.420 36.220 C 306.629 36.011,306.800 34.627,306.800 33.144 C 306.800 31.661,306.980 30.336,307.200 30.200 C 308.417 29.448,307.448 21.588,305.729 18.264 C 304.951 16.758,300.906 12.800,300.146 12.800 C 299.846 12.800,299.600 12.620,299.600 12.400 C 299.600 12.180,299.161 12.000,298.624 12.000 C 298.087 12.000,297.536 11.820,297.400 11.600 C 297.241 11.342,290.129 11.200,277.376 11.200 C 264.459 11.200,257.600 11.339,257.600 11.600 M292.237 28.300 C 291.096 37.888,290.729 45.735,290.443 66.600 C 290.271 79.140,290.205 89.611,290.296 89.869 C 290.502 90.452,290.242 90.350,299.400 93.458 C 303.580 94.876,307.360 96.199,307.800 96.397 C 308.240 96.595,310.310 97.316,312.400 98.000 C 314.490 98.684,316.560 99.406,317.000 99.605 C 317.440 99.804,319.150 100.415,320.800 100.962 C 323.490 101.855,334.977 105.816,344.568 109.159 C 348.910 110.673,348.318 109.861,349.006 115.245 C 349.713 120.783,349.875 121.404,351.101 123.270 C 354.600 128.596,360.781 125.210,360.806 117.954 C 360.816 115.152,362.219 114.503,364.560 116.219 C 366.426 117.586,364.381 127.346,361.556 130.555 C 354.303 138.795,345.144 131.487,344.179 116.691 C 344.007 114.060,343.731 112.588,343.333 112.191 C 339.669 108.527,339.819 121.699,343.526 129.162 C 346.786 135.724,354.004 138.905,359.709 136.293 C 364.918 133.908,367.191 130.051,368.424 121.500 C 368.702 119.575,369.005 118.000,369.099 118.000 C 369.976 118.000,374.948 121.020,376.739 122.640 C 382.463 127.820,382.538 132.225,377.142 146.200 C 376.037 149.060,374.591 152.840,373.929 154.600 C 373.266 156.360,372.561 158.205,372.362 158.700 C 372.163 159.195,371.837 160.005,371.638 160.500 C 371.439 160.995,370.702 162.930,370.000 164.800 C 369.298 166.670,368.537 168.650,368.308 169.200 C 367.737 170.575,368.140 169.523,361.803 186.200 C 357.331 197.967,356.359 200.512,355.999 201.400 C 355.821 201.840,354.950 204.090,354.064 206.400 C 353.177 208.710,351.554 212.940,350.455 215.800 C 349.357 218.660,347.262 224.150,345.800 228.000 C 344.337 231.850,342.254 237.295,341.170 240.100 C 340.087 242.905,338.282 247.585,337.160 250.500 C 336.038 253.415,334.253 258.050,333.195 260.800 C 332.136 263.550,330.423 268.050,329.389 270.800 C 328.354 273.550,326.433 278.590,325.120 282.000 C 323.806 285.410,322.010 290.090,321.128 292.400 C 320.246 294.710,319.379 296.960,319.200 297.400 C 319.021 297.840,318.121 300.180,317.200 302.600 C 316.279 305.020,315.375 307.360,315.193 307.800 C 315.010 308.240,313.840 311.300,312.593 314.600 C 311.347 317.900,309.425 322.940,308.323 325.800 C 307.222 328.660,305.601 332.890,304.723 335.200 C 303.844 337.510,302.979 339.760,302.800 340.200 C 302.621 340.640,301.721 342.980,300.800 345.400 C 299.879 347.820,298.975 350.160,298.791 350.600 C 298.608 351.040,297.533 353.817,296.403 356.771 C 289.345 375.221,284.329 377.477,267.000 369.998 C 266.560 369.808,265.030 369.268,263.600 368.797 C 262.170 368.327,260.730 367.842,260.400 367.719 C 260.070 367.597,257.370 366.637,254.400 365.587 C 251.430 364.537,246.120 362.657,242.600 361.410 C 239.080 360.164,235.210 358.808,234.000 358.398 C 232.790 357.988,229.730 356.911,227.200 356.005 C 224.670 355.099,221.790 354.088,220.800 353.759 C 219.810 353.429,218.640 353.003,218.200 352.812 C 217.760 352.620,216.050 352.011,214.400 351.459 C 212.750 350.906,208.790 349.529,205.600 348.400 C 202.410 347.270,198.090 345.749,196.000 345.020 C 193.910 344.291,191.120 343.301,189.800 342.820 C 188.480 342.340,186.410 341.612,185.200 341.205 C 183.990 340.797,180.390 339.540,177.200 338.412 C 174.010 337.284,170.590 336.091,169.600 335.760 C 168.610 335.430,167.440 334.998,167.000 334.801 C 161.544 332.357,157.911 331.721,156.497 332.962 C 152.983 336.043,135.335 350.000,134.952 350.000 C 134.496 350.000,133.901 348.864,130.976 342.400 C 128.482 336.890,117.971 315.939,116.827 314.200 C 116.249 313.320,115.535 312.060,115.241 311.400 C 113.517 307.529,109.036 299.399,95.398 275.400 C 91.398 268.360,87.672 261.790,87.119 260.800 C 86.178 259.117,85.489 257.902,83.656 254.700 C 83.247 253.985,82.347 252.447,81.656 251.282 C 80.965 250.118,80.400 249.104,80.400 249.029 C 80.400 248.954,78.690 245.877,76.600 242.190 C 74.510 238.502,72.800 235.443,72.800 235.392 C 72.800 235.303,70.674 231.419,67.879 226.400 C 64.505 220.343,54.970 201.486,51.091 193.200 C 47.654 185.858,41.600 171.835,41.600 171.216 C 41.600 169.867,40.396 169.674,38.305 170.686 C 33.383 173.068,30.253 174.400,29.577 174.400 C 28.097 174.400,25.318 169.035,20.517 156.913 C 20.349 156.488,24.981 154.000,25.939 154.000 C 26.115 154.000,27.325 153.489,28.629 152.865 C 29.933 152.241,31.585 151.477,32.300 151.167 C 33.647 150.585,33.866 149.923,33.244 148.319 C 33.048 147.813,32.486 146.050,31.995 144.400 C 31.505 142.750,30.950 140.950,30.763 140.400 C 30.576 139.850,30.045 137.960,29.582 136.200 C 29.119 134.440,28.479 132.010,28.159 130.800 C 26.836 125.789,24.777 115.837,24.963 115.353 C 25.073 115.066,27.106 113.901,29.481 112.763 C 31.857 111.624,35.780 109.749,38.200 108.594 C 58.448 98.935,74.693 90.962,104.200 76.204 L 130.600 63.000 130.716 59.500 C 130.803 56.860,130.704 55.994,130.316 55.975 C 127.440 55.834,123.095 55.241,122.864 54.957 C 122.704 54.761,122.641 50.765,122.722 46.077 L 122.871 37.553 126.335 37.603 C 128.241 37.630,130.115 37.641,130.500 37.626 C 131.120 37.603,131.200 37.125,131.200 33.445 L 131.200 29.289 140.100 29.057 C 144.995 28.930,158.990 28.640,171.200 28.412 C 201.222 27.854,232.367 27.223,259.800 26.618 C 272.340 26.341,284.830 26.089,287.555 26.058 L 292.510 26.000 292.237 28.300 M164.600 64.877 C 151.576 74.123,148.144 90.487,155.723 107.200 C 157.476 111.064,162.353 117.620,163.453 117.591 C 163.969 117.578,176.153 98.769,179.583 92.692 C 181.223 89.786,181.500 89.818,183.183 93.101 C 183.943 94.586,185.096 96.700,185.745 97.800 C 186.394 98.900,187.129 100.160,187.377 100.600 C 190.916 106.857,190.693 106.735,191.969 103.112 C 192.456 101.731,193.400 99.160,194.067 97.400 C 194.734 95.640,195.639 93.210,196.079 92.000 C 196.518 90.790,197.023 89.440,197.200 89.000 C 199.800 82.540,199.909 82.770,195.148 84.620 C 188.444 87.225,182.520 89.200,181.412 89.200 C 179.491 89.200,169.360 72.799,166.771 65.500 C 166.153 63.758,166.170 63.762,164.600 64.877 M356.300 113.249 C 358.221 114.066,358.252 114.195,357.449 118.036 C 355.995 124.984,353.085 123.392,352.517 115.336 L 352.278 111.954 353.439 112.240 C 354.078 112.397,355.365 112.851,356.300 113.249 M230.153 125.378 C 229.888 126.070,230.631 127.201,231.349 127.198 C 231.597 127.197,233.240 127.754,235.000 128.436 C 236.760 129.118,238.560 129.815,239.000 129.985 C 239.440 130.154,240.250 130.479,240.800 130.706 C 241.350 130.933,242.430 131.336,243.200 131.600 C 243.970 131.864,244.960 132.226,245.400 132.403 C 246.783 132.960,254.395 135.857,259.600 137.808 C 265.554 140.040,272.684 142.747,273.800 143.199 C 274.240 143.378,276.085 144.081,277.900 144.762 C 279.715 145.443,282.685 146.557,284.500 147.238 C 286.315 147.919,288.205 148.639,288.700 148.838 C 289.195 149.037,290.005 149.362,290.500 149.561 C 290.995 149.760,292.390 150.285,293.600 150.729 C 294.810 151.173,297.690 152.255,300.000 153.133 C 302.310 154.011,306.450 155.567,309.200 156.590 C 311.950 157.613,314.560 158.601,315.000 158.787 C 315.440 158.972,317.330 159.698,319.200 160.400 C 321.070 161.102,322.960 161.822,323.400 162.001 C 326.283 163.171,327.655 163.554,328.208 163.342 C 329.361 162.899,328.626 161.870,326.600 161.089 C 325.500 160.665,324.240 160.174,323.800 159.997 C 323.360 159.821,321.470 159.102,319.600 158.400 C 317.730 157.698,315.840 156.978,315.400 156.800 C 314.960 156.622,313.070 155.902,311.200 155.200 C 309.330 154.498,307.440 153.778,307.000 153.600 C 306.560 153.422,304.760 152.733,303.000 152.069 C 301.240 151.405,295.660 149.297,290.600 147.383 C 285.540 145.470,279.960 143.373,278.200 142.723 C 276.440 142.073,274.640 141.392,274.200 141.209 C 273.760 141.026,271.870 140.302,270.000 139.600 C 268.130 138.898,266.240 138.178,265.800 138.000 C 265.360 137.822,263.560 137.137,261.800 136.478 C 260.040 135.818,257.790 134.972,256.800 134.597 C 255.810 134.223,251.040 132.425,246.200 130.602 C 234.412 126.163,233.923 125.978,233.000 125.588 C 231.127 124.797,230.397 124.743,230.153 125.378 M125.595 131.485 C 116.261 142.782,109.490 150.000,108.225 150.000 C 107.771 150.000,104.570 148.556,101.110 146.791 L 94.820 143.581 94.559 144.620 C 94.219 145.978,94.075 145.869,100.850 149.374 C 108.753 153.461,108.736 153.462,113.191 148.900 C 121.846 140.035,130.124 130.257,130.605 128.329 C 131.395 125.163,130.192 125.920,125.595 131.485 M77.622 168.002 C 73.164 179.224,69.619 188.674,69.746 189.002 C 70.083 189.882,71.099 189.730,71.755 188.700 C 72.360 187.751,87.600 149.584,87.600 149.018 C 87.600 148.679,86.385 147.635,85.964 147.613 C 85.835 147.606,82.081 156.781,77.622 168.002 M202.534 157.027 C 202.218 157.852,202.494 158.051,205.800 159.389 C 207.340 160.012,209.550 160.945,210.712 161.461 C 211.873 161.977,213.052 162.400,213.332 162.400 C 213.611 162.400,214.011 162.552,214.220 162.738 C 214.429 162.923,215.680 163.484,217.000 163.983 C 218.320 164.483,219.940 165.128,220.600 165.417 C 222.740 166.354,241.235 173.547,255.200 178.873 C 257.510 179.754,259.760 180.621,260.200 180.799 C 260.640 180.976,261.990 181.482,263.200 181.921 C 265.416 182.726,269.383 184.210,275.100 186.372 C 278.839 187.787,285.816 190.307,291.800 192.405 C 294.220 193.253,297.730 194.513,299.600 195.205 C 301.470 195.897,303.990 196.799,305.200 197.209 C 306.410 197.619,310.550 199.058,314.400 200.406 C 325.551 204.311,325.200 204.235,325.200 202.747 C 325.200 201.849,324.500 201.474,320.111 200.023 C 315.879 198.625,301.175 193.498,294.800 191.199 C 292.270 190.286,289.750 189.389,289.200 189.205 C 288.650 189.022,286.670 188.299,284.800 187.600 C 282.930 186.901,280.950 186.186,280.400 186.011 C 279.431 185.704,276.631 184.662,275.000 184.002 C 274.560 183.824,273.165 183.300,271.900 182.839 C 266.839 180.993,265.269 180.411,262.200 179.242 C 260.440 178.572,255.850 176.838,252.000 175.388 C 248.150 173.939,244.550 172.559,244.000 172.323 C 243.450 172.086,242.640 171.752,242.200 171.579 C 225.454 164.998,206.318 157.391,205.439 156.964 C 203.918 156.225,202.833 156.249,202.534 157.027 M192.400 177.346 C 192.400 178.111,192.763 178.423,194.300 178.979 C 196.621 179.820,202.304 181.956,203.400 182.401 C 203.840 182.579,206.090 183.447,208.400 184.329 C 210.710 185.211,214.940 186.834,217.800 187.935 C 220.660 189.037,226.240 191.131,230.200 192.589 C 238.926 195.801,241.551 196.778,242.600 197.201 C 244.247 197.866,249.947 200.001,254.200 201.546 C 256.620 202.426,260.400 203.808,262.600 204.618 C 264.800 205.429,269.750 207.227,273.600 208.615 C 277.450 210.003,282.130 211.706,284.000 212.400 C 285.870 213.095,288.390 213.995,289.600 214.401 C 293.087 215.572,297.727 217.225,298.600 217.608 C 299.040 217.802,300.210 218.229,301.200 218.558 C 302.190 218.887,305.070 219.905,307.600 220.820 C 316.970 224.208,318.037 224.523,318.524 224.036 C 319.355 223.205,318.236 222.250,315.159 221.168 C 313.532 220.596,311.930 220.019,311.600 219.887 C 311.270 219.754,310.190 219.375,309.200 219.044 C 308.210 218.713,305.330 217.701,302.800 216.795 C 300.270 215.889,297.210 214.819,296.000 214.417 C 294.790 214.015,293.080 213.412,292.200 213.078 C 291.320 212.744,289.340 212.018,287.800 211.465 C 279.720 208.565,271.749 205.662,270.600 205.201 C 270.160 205.025,269.170 204.664,268.400 204.400 C 267.630 204.136,266.640 203.766,266.200 203.580 C 265.760 203.393,264.590 202.979,263.600 202.659 C 262.610 202.339,260.630 201.621,259.200 201.065 C 257.770 200.508,254.890 199.428,252.800 198.665 C 244.325 195.572,233.352 191.521,232.600 191.210 C 232.160 191.027,230.720 190.483,229.400 190.000 C 228.080 189.517,226.640 188.976,226.200 188.797 C 225.760 188.619,225.040 188.347,224.600 188.194 C 224.160 188.041,221.010 186.837,217.600 185.520 C 214.190 184.202,210.050 182.619,208.400 182.003 C 206.750 181.386,202.735 179.873,199.478 178.641 C 192.755 176.097,192.400 176.032,192.400 177.346 M247.586 232.617 C 246.605 233.799,247.081 234.008,288.200 250.401 C 288.640 250.577,289.853 251.098,290.896 251.560 C 291.938 252.022,292.975 252.400,293.200 252.400 C 293.425 252.400,294.372 252.740,295.304 253.156 C 301.469 255.906,303.600 256.314,303.600 254.746 C 303.600 254.307,300.769 253.010,295.000 250.806 C 292.580 249.881,290.240 248.968,289.800 248.776 C 289.360 248.584,284.860 246.788,279.800 244.784 C 274.740 242.780,270.077 240.884,269.439 240.570 C 268.800 240.257,268.123 240.000,267.934 240.000 C 267.746 240.000,266.738 239.619,265.696 239.153 C 262.441 237.700,261.494 237.301,258.200 236.000 C 254.771 234.645,253.192 233.983,250.489 232.769 C 248.423 231.840,248.238 231.831,247.586 232.617 M200.000 265.742 C 191.447 268.304,171.769 280.690,172.641 282.962 C 173.042 284.007,173.597 283.740,178.203 280.287 C 191.819 270.079,203.855 265.290,209.729 267.744 C 213.153 269.175,213.244 270.788,210.060 273.580 C 207.226 276.065,200.423 281.200,199.965 281.200 C 197.258 281.200,183.979 290.327,184.544 291.799 C 185.057 293.134,188.645 291.428,197.268 285.751 C 201.391 283.037,202.259 282.616,205.400 281.810 C 213.868 279.636,221.622 280.569,218.119 283.340 C 214.615 286.112,209.952 289.234,205.289 291.929 C 198.512 295.845,196.328 297.657,197.248 298.602 C 197.934 299.307,197.317 299.625,208.653 292.738 C 213.160 290.000,221.182 288.686,223.236 290.349 L 224.161 291.098 221.604 292.367 C 217.041 294.630,212.182 299.174,213.239 300.188 C 214.881 301.763,222.321 302.971,227.700 302.536 C 230.627 302.299,230.800 302.330,230.800 303.094 C 230.800 304.257,231.162 304.446,237.827 306.748 C 243.616 308.748,245.200 308.970,245.200 307.781 C 245.200 307.012,244.695 306.766,239.800 305.146 C 233.793 303.158,234.173 302.022,241.400 300.361 C 244.511 299.646,245.200 299.292,245.200 298.409 C 245.200 297.197,243.920 297.330,235.400 299.432 C 229.071 300.992,216.400 300.609,216.400 298.857 C 216.400 297.955,221.560 294.626,225.500 292.986 C 229.364 291.378,225.596 287.604,220.124 287.601 C 216.411 287.600,216.363 287.396,219.511 285.000 C 222.678 282.588,222.789 282.328,221.292 280.830 C 219.436 278.975,216.281 278.249,211.536 278.585 C 206.843 278.918,206.905 279.052,210.432 276.202 C 215.177 272.369,215.859 270.339,213.300 267.668 C 210.558 264.807,205.544 264.081,200.000 265.742 " stroke="none" fill="#f7f8f9" fill-rule="evenodd"></path><path id="path2" d="M259.800 26.618 C 232.367 27.223,201.222 27.854,171.200 28.412 C 158.990 28.640,144.995 28.930,140.100 29.057 L 131.200 29.289 131.200 33.380 L 131.200 37.470 142.039 37.835 L 152.877 38.200 153.739 39.282 C 155.070 40.955,158.800 47.221,158.800 47.785 C 158.800 48.062,156.746 50.280,154.236 52.714 C 148.913 57.875,148.847 57.899,141.800 57.208 C 139.380 56.971,135.929 56.667,134.131 56.534 L 130.862 56.291 130.712 59.846 C 129.924 78.453,131.252 205.705,132.640 244.754 L 132.930 252.907 133.800 250.354 C 136.555 242.259,139.812 238.972,147.851 236.172 C 156.608 233.123,161.373 227.664,165.982 215.400 C 166.148 214.960,166.683 213.711,167.173 212.625 C 167.792 211.250,167.880 210.801,167.464 211.147 C 165.644 212.658,157.436 205.862,154.725 200.600 C 151.299 193.952,149.837 184.747,151.211 178.477 C 151.438 177.445,151.825 175.700,152.072 174.600 C 155.478 159.440,169.598 147.806,186.096 146.568 C 189.510 146.312,189.600 146.328,189.970 147.253 C 190.306 148.091,190.352 148.017,190.372 146.600 C 190.423 142.918,189.338 138.874,186.615 132.600 C 185.322 129.621,185.103 128.599,185.116 125.600 L 185.130 122.402 184.065 122.701 C 179.282 124.043,170.117 122.558,165.859 119.750 C 156.335 113.471,149.751 96.394,152.152 84.200 C 156.897 60.110,187.478 50.468,206.600 67.032 L 208.200 68.418 206.149 70.309 C 204.034 72.259,202.162 74.695,202.511 75.044 C 202.620 75.153,203.099 74.610,203.576 73.838 C 207.611 67.311,214.705 65.282,224.100 67.971 C 224.925 68.207,226.185 68.557,226.900 68.749 C 228.124 69.077,248.042 75.747,257.905 79.131 C 260.383 79.982,262.528 80.795,262.672 80.939 C 262.816 81.082,263.266 81.200,263.672 81.200 C 264.078 81.200,264.723 81.376,265.105 81.591 C 265.487 81.806,267.150 82.429,268.800 82.976 C 270.450 83.522,273.330 84.509,275.200 85.167 C 277.070 85.826,281.120 87.249,284.200 88.330 C 287.280 89.412,290.160 90.427,290.600 90.586 C 291.231 90.814,291.274 90.786,290.804 90.455 C 289.399 89.463,290.489 42.673,292.257 28.100 L 292.511 26.000 287.556 26.058 C 284.830 26.089,272.340 26.341,259.800 26.618 M200.200 80.400 C 200.050 80.873,200.017 81.350,200.127 81.460 C 200.237 81.570,200.450 81.273,200.600 80.800 C 200.750 80.327,200.783 79.850,200.673 79.740 C 200.563 79.630,200.350 79.927,200.200 80.400 M343.187 111.983 C 343.515 112.191,343.887 113.289,344.030 114.477 C 344.287 116.594,344.288 116.595,344.344 114.874 C 344.405 113.007,343.862 111.596,343.086 111.606 C 342.775 111.610,342.811 111.746,343.187 111.983 M348.423 113.233 C 348.436 113.985,348.605 115.320,348.798 116.200 C 349.069 117.430,349.098 117.152,348.926 115.000 C 348.687 112.020,348.385 110.958,348.423 113.233 M340.542 115.800 C 340.541 117.780,340.608 118.640,340.692 117.712 C 340.776 116.784,340.777 115.164,340.695 114.112 C 340.612 113.060,340.543 113.820,340.542 115.800 M357.356 115.943 C 357.325 117.531,357.402 117.904,357.616 117.200 C 358.025 115.856,358.070 114.089,357.700 113.866 C 357.535 113.767,357.380 114.701,357.356 115.943 M352.469 115.200 C 352.456 115.750,352.595 116.920,352.777 117.800 C 352.989 118.826,353.116 119.041,353.131 118.400 C 353.144 117.850,353.005 116.680,352.823 115.800 C 352.611 114.774,352.484 114.559,352.469 115.200 M360.978 116.145 C 360.848 116.664,360.816 117.699,360.907 118.445 C 361.043 119.567,361.083 119.476,361.136 117.920 C 361.181 116.599,361.408 115.918,361.900 115.632 C 362.559 115.248,362.559 115.224,361.908 115.212 C 361.508 115.205,361.115 115.599,360.978 116.145 M364.920 119.200 C 364.920 120.410,364.995 120.905,365.087 120.300 C 365.178 119.695,365.178 118.705,365.087 118.100 C 364.995 117.495,364.920 117.990,364.920 119.200 M344.428 120.033 C 344.444 120.785,344.612 121.760,344.803 122.200 C 345.026 122.715,345.067 122.287,344.918 121.000 C 344.644 118.622,344.389 118.119,344.428 120.033 M349.206 119.433 C 349.209 119.855,349.395 120.470,349.618 120.800 C 349.915 121.238,349.952 121.076,349.756 120.200 C 349.427 118.729,349.198 118.410,349.206 119.433 M356.846 119.267 C 356.821 119.634,356.696 120.264,356.570 120.667 C 356.352 121.362,356.363 121.363,356.797 120.687 C 357.048 120.296,357.173 119.666,357.073 119.287 C 356.911 118.668,356.888 118.666,356.846 119.267 M353.201 119.681 C 353.193 121.249,355.234 122.926,356.098 122.062 C 356.388 121.772,356.259 121.712,355.677 121.864 C 355.036 122.032,354.647 121.768,354.021 120.742 C 353.571 120.004,353.202 119.527,353.201 119.681 M368.218 122.218 C 368.065 123.239,368.030 124.163,368.140 124.273 C 368.250 124.383,368.465 123.639,368.618 122.618 C 368.771 121.598,368.806 120.673,368.696 120.563 C 368.586 120.453,368.371 121.198,368.218 122.218 M341.062 122.600 C 341.196 123.480,341.372 124.275,341.453 124.367 C 341.756 124.710,341.529 122.568,341.181 121.800 C 340.929 121.242,340.893 121.485,341.062 122.600 M360.032 122.009 C 359.822 126.049,353.438 127.021,351.174 123.357 C 350.145 121.694,349.757 121.569,350.584 123.168 C 351.824 125.568,355.185 126.970,357.161 125.914 C 358.481 125.208,360.535 122.582,360.276 121.932 C 360.117 121.534,360.055 121.553,360.032 122.009 M364.222 123.822 C 364.072 124.625,364.028 125.362,364.126 125.460 C 364.224 125.557,364.427 124.981,364.578 124.178 C 364.728 123.375,364.772 122.638,364.674 122.540 C 364.576 122.443,364.373 123.019,364.222 123.822 M229.600 125.757 C 229.600 126.284,229.895 126.828,230.257 126.966 C 230.803 127.176,230.829 127.117,230.412 126.614 C 230.136 126.282,230.015 125.738,230.143 125.405 C 230.270 125.072,230.201 124.800,229.987 124.800 C 229.774 124.800,229.600 125.231,229.600 125.757 M233.951 128.436 C 235.574 129.094,236.970 129.563,237.053 129.480 C 237.235 129.299,231.951 127.191,231.390 127.221 C 231.176 127.232,232.328 127.779,233.951 128.436 M238.626 127.765 C 240.644 128.644,241.926 128.859,240.200 128.029 C 239.320 127.606,238.330 127.253,238.000 127.245 C 237.670 127.238,237.952 127.472,238.626 127.765 M343.758 130.200 C 344.071 130.860,344.985 132.120,345.788 133.000 L 347.247 134.600 345.724 132.553 C 344.886 131.428,343.972 130.168,343.694 129.753 C 343.407 129.326,343.435 129.519,343.758 130.200 M245.026 130.165 C 247.044 131.044,248.326 131.259,246.600 130.429 C 245.720 130.006,244.730 129.653,244.400 129.645 C 244.070 129.638,244.352 129.872,245.026 130.165 M251.426 132.565 C 253.444 133.444,254.726 133.659,253.000 132.829 C 252.120 132.406,251.130 132.053,250.800 132.045 C 250.470 132.038,250.752 132.272,251.426 132.565 M363.454 133.833 C 362.823 134.387,362.387 134.920,362.483 135.016 C 362.579 135.113,363.174 134.654,363.804 133.996 C 365.196 132.543,365.016 132.459,363.454 133.833 M360.400 136.000 C 359.630 136.422,359.144 136.774,359.320 136.783 C 359.744 136.805,362.000 135.632,362.000 135.390 C 362.000 135.128,361.977 135.137,360.400 136.000 M89.000 137.198 C 88.470 137.437,88.963 137.482,90.458 137.330 C 93.291 137.041,94.073 137.954,94.437 141.980 L 94.674 144.600 94.737 142.159 C 94.845 137.959,92.263 135.725,89.000 137.198 M352.538 137.294 C 352.792 137.456,354.080 137.588,355.400 137.588 C 356.720 137.588,358.008 137.456,358.262 137.294 C 358.516 137.132,357.228 137.000,355.400 137.000 C 353.572 137.000,352.284 137.132,352.538 137.294 M86.497 138.130 C 85.649 138.601,84.150 140.363,84.459 140.526 C 84.537 140.567,85.286 139.925,86.125 139.100 C 86.964 138.275,87.594 137.606,87.525 137.614 C 87.456 137.622,86.993 137.854,86.497 138.130 M271.000 139.971 C 271.880 140.394,272.870 140.747,273.200 140.755 C 273.886 140.771,271.839 139.827,270.374 139.451 C 269.838 139.314,270.120 139.548,271.000 139.971 M266.168 140.617 C 267.470 141.158,268.730 141.592,268.968 141.583 C 269.206 141.574,268.334 141.124,267.032 140.583 C 265.730 140.042,264.470 139.608,264.232 139.617 C 263.994 139.626,264.866 140.076,266.168 140.617 M84.101 142.600 C 84.105 143.480,84.187 143.793,84.283 143.295 C 84.379 142.798,84.375 142.078,84.275 141.695 C 84.175 141.313,84.096 141.720,84.101 142.600 M277.402 142.341 C 278.283 142.750,279.453 143.200,280.002 143.342 C 280.551 143.485,280.279 143.267,279.398 142.859 C 278.517 142.450,277.347 142.000,276.798 141.858 C 276.249 141.715,276.521 141.933,277.402 142.341 M275.426 144.165 C 277.444 145.044,278.726 145.259,277.000 144.429 C 276.120 144.006,275.130 143.653,274.800 143.645 C 274.470 143.638,274.752 143.872,275.426 144.165 M84.416 144.668 C 84.389 145.443,85.707 147.476,86.581 148.007 C 87.374 148.489,87.373 148.475,86.549 147.553 C 86.080 147.029,85.413 146.060,85.065 145.400 C 84.717 144.740,84.425 144.410,84.416 144.668 M93.815 145.952 C 93.282 147.632,91.195 148.903,89.318 148.692 C 88.373 148.585,87.600 148.656,87.600 148.849 C 87.600 149.454,90.824 149.231,91.984 148.546 C 93.100 147.887,94.651 145.718,94.275 145.342 C 94.164 145.231,93.957 145.505,93.815 145.952 M281.826 146.565 C 283.844 147.444,285.126 147.659,283.400 146.829 C 282.520 146.406,281.530 146.053,281.200 146.045 C 280.870 146.038,281.152 146.272,281.826 146.565 M292.626 148.165 C 294.644 149.044,295.926 149.259,294.200 148.429 C 293.320 148.006,292.330 147.653,292.000 147.645 C 291.670 147.638,291.952 147.872,292.626 148.165 M309.802 157.141 C 310.683 157.550,311.853 158.000,312.402 158.142 C 312.951 158.285,312.679 158.067,311.798 157.659 C 310.917 157.250,309.747 156.800,309.198 156.658 C 308.649 156.515,308.921 156.733,309.802 157.141 M320.600 158.771 C 321.480 159.194,322.470 159.547,322.800 159.555 C 323.486 159.571,321.439 158.627,319.974 158.251 C 319.438 158.114,319.720 158.348,320.600 158.771 M316.626 159.765 C 318.644 160.644,319.926 160.859,318.200 160.029 C 317.320 159.606,316.330 159.253,316.000 159.245 C 315.670 159.238,315.952 159.472,316.626 159.765 M325.600 160.534 C 325.600 160.637,326.181 160.924,326.891 161.172 C 327.601 161.419,328.006 161.457,327.791 161.256 C 327.335 160.829,325.600 160.258,325.600 160.534 M328.663 162.220 C 328.974 163.031,328.091 163.652,327.000 163.389 C 326.323 163.225,326.337 163.266,327.090 163.655 C 328.454 164.358,330.086 162.595,328.805 161.803 C 328.573 161.659,328.514 161.832,328.663 162.220 M318.345 222.495 C 318.644 222.877,318.781 223.471,318.649 223.816 C 318.511 224.176,318.577 224.338,318.805 224.197 C 319.416 223.819,319.273 222.956,318.500 222.349 C 317.867 221.852,317.852 221.866,318.345 222.495 M132.200 254.000 C 132.050 254.473,132.017 254.950,132.127 255.060 C 132.237 255.170,132.450 254.873,132.600 254.400 C 132.750 253.927,132.783 253.450,132.673 253.340 C 132.563 253.230,132.350 253.527,132.200 254.000 M130.577 258.643 C 130.444 259.059,130.170 259.813,129.967 260.319 C 129.765 260.824,129.610 261.454,129.622 261.719 C 129.634 261.983,130.000 261.321,130.436 260.247 C 130.872 259.173,131.136 258.203,131.023 258.090 C 130.911 257.978,130.710 258.226,130.577 258.643 M128.972 263.043 C 128.302 265.096,127.889 266.272,127.580 267.000 C 127.393 267.440,126.971 268.610,126.641 269.600 C 126.312 270.590,125.312 273.466,124.421 275.991 C 123.529 278.516,122.805 280.676,122.812 280.791 C 122.840 281.275,123.560 279.623,124.376 277.200 C 124.858 275.770,125.412 274.240,125.606 273.800 C 125.801 273.360,126.227 272.190,126.553 271.200 C 126.880 270.210,127.700 267.886,128.375 266.035 C 129.050 264.184,129.516 262.583,129.411 262.477 C 129.305 262.372,129.108 262.626,128.972 263.043 M212.905 280.687 C 213.514 280.779,214.414 280.777,214.905 280.682 C 215.397 280.587,214.900 280.511,213.800 280.514 C 212.700 280.517,212.297 280.595,212.905 280.687 M121.877 283.077 C 121.500 284.093,121.279 285.013,121.387 285.120 C 121.494 285.227,121.692 284.974,121.828 284.557 C 121.964 284.141,122.262 283.299,122.491 282.687 C 122.720 282.075,122.830 281.497,122.735 281.401 C 122.640 281.306,122.254 282.060,121.877 283.077 M217.161 287.323 C 217.340 287.500,218.456 287.588,219.643 287.517 L 221.800 287.389 219.318 287.194 C 217.954 287.087,216.983 287.145,217.161 287.323 M119.446 289.846 C 118.610 292.301,118.875 292.566,119.785 290.185 C 120.170 289.176,120.396 288.263,120.287 288.154 C 120.179 288.045,119.800 288.807,119.446 289.846 M118.200 293.200 C 118.050 293.673,118.017 294.150,118.127 294.260 C 118.237 294.370,118.450 294.073,118.600 293.600 C 118.750 293.127,118.783 292.650,118.673 292.540 C 118.563 292.430,118.350 292.727,118.200 293.200 M116.629 297.829 C 116.481 298.415,116.438 298.972,116.532 299.066 C 116.627 299.160,116.824 298.758,116.971 298.171 C 117.119 297.585,117.162 297.028,117.068 296.934 C 116.973 296.840,116.776 297.242,116.629 297.829 M115.800 300.400 C 115.650 300.873,115.617 301.350,115.727 301.460 C 115.837 301.570,116.050 301.273,116.200 300.800 C 116.350 300.327,116.383 299.850,116.273 299.740 C 116.163 299.630,115.950 299.927,115.800 300.400 M115.076 302.810 C 114.930 303.355,114.827 304.250,114.846 304.800 C 114.871 305.518,114.984 305.357,115.249 304.227 C 115.655 302.495,115.500 301.225,115.076 302.810 M221.300 302.676 C 221.685 302.776,222.315 302.776,222.700 302.676 C 223.085 302.575,222.770 302.493,222.000 302.493 C 221.230 302.493,220.915 302.575,221.300 302.676 M230.446 303.051 C 230.421 303.519,230.715 304.149,231.100 304.451 C 231.709 304.928,231.740 304.922,231.343 304.400 C 231.092 304.070,230.798 303.440,230.689 303.000 C 230.503 302.240,230.490 302.243,230.446 303.051 M114.800 310.110 C 114.800 310.683,114.987 311.268,115.216 311.410 C 115.489 311.579,115.538 311.277,115.360 310.534 C 114.992 309.001,114.800 308.856,114.800 310.110 M116.951 314.452 C 117.691 315.599,122.316 319.017,122.661 318.672 C 122.778 318.555,122.289 318.156,121.574 317.787 C 120.859 317.417,119.374 316.279,118.273 315.257 C 116.948 314.027,116.501 313.756,116.951 314.452 M125.375 320.074 C 126.391 320.664,130.075 322.007,130.594 321.977 C 130.817 321.964,129.653 321.424,128.007 320.777 C 124.843 319.533,124.102 319.335,125.375 320.074 M131.400 322.263 C 131.882 322.722,137.210 324.524,137.431 324.303 C 137.516 324.217,136.378 323.733,134.901 323.226 C 133.424 322.719,131.942 322.209,131.608 322.093 C 131.213 321.956,131.141 322.016,131.400 322.263 M138.077 324.611 C 138.299 324.832,142.193 326.258,144.154 326.835 C 146.530 327.535,144.687 326.635,141.505 325.541 C 138.042 324.351,137.734 324.268,138.077 324.611 M145.633 327.351 C 146.038 327.718,154.143 330.391,154.319 330.215 C 154.426 330.107,154.264 329.938,153.957 329.838 C 149.465 328.383,148.090 327.902,147.505 327.581 C 146.849 327.221,145.277 327.028,145.633 327.351 M157.400 331.600 C 157.536 331.820,157.917 332.000,158.247 332.000 C 158.577 332.000,158.736 331.820,158.600 331.600 C 158.464 331.380,158.083 331.200,157.753 331.200 C 157.423 331.200,157.264 331.380,157.400 331.600 " stroke="none" fill="#a46cf2" fill-rule="evenodd"></path><path id="path3" d="M212.800 67.146 C 208.429 68.106,203.644 72.395,202.032 76.800 C 201.750 77.570,201.374 78.560,201.196 79.000 C 199.901 82.210,192.891 101.054,191.971 103.800 C 191.676 104.680,191.225 105.670,190.969 106.000 C 190.471 106.641,189.280 109.809,186.764 117.181 C 185.087 122.094,184.627 127.337,185.650 129.881 C 185.897 130.497,186.239 131.360,186.409 131.800 C 186.579 132.240,187.013 133.271,187.374 134.091 C 190.372 140.913,191.061 146.874,189.491 152.400 C 188.540 155.747,187.551 158.910,187.177 159.800 C 186.992 160.240,186.578 161.410,186.258 162.400 C 185.938 163.390,185.371 165.010,184.999 166.000 C 184.627 166.990,183.988 168.700,183.580 169.800 C 182.081 173.843,174.345 194.225,174.016 195.000 C 173.829 195.440,173.137 197.240,172.477 199.000 C 161.278 228.883,158.685 232.715,147.028 236.609 C 139.847 239.007,136.293 242.924,133.423 251.600 C 132.471 254.480,129.848 261.961,128.025 267.000 C 127.547 268.320,126.887 270.210,126.558 271.200 C 126.229 272.190,125.802 273.360,125.608 273.800 C 125.231 274.658,123.529 279.453,122.555 282.400 C 122.227 283.390,121.802 284.560,121.608 285.000 C 121.231 285.858,119.529 290.653,118.555 293.600 C 118.227 294.590,117.802 295.760,117.609 296.200 C 112.108 308.764,115.114 316.112,127.600 320.620 C 132.966 322.557,140.828 325.331,142.400 325.841 C 143.390 326.162,144.513 326.600,144.895 326.813 C 145.277 327.026,145.864 327.200,146.200 327.200 C 146.536 327.200,147.123 327.371,147.505 327.581 C 147.887 327.791,149.370 328.343,150.800 328.807 C 152.230 329.272,153.760 329.803,154.200 329.986 C 154.640 330.169,155.630 330.536,156.400 330.800 C 157.170 331.064,158.160 331.426,158.600 331.603 C 160.494 332.367,163.154 333.336,165.200 334.009 C 166.410 334.407,170.010 335.661,173.200 336.796 C 176.390 337.931,181.250 339.638,184.000 340.590 C 186.750 341.543,191.070 343.071,193.600 343.986 C 196.130 344.901,199.730 346.168,201.600 346.801 C 203.470 347.434,207.070 348.695,209.600 349.602 C 212.130 350.510,215.190 351.581,216.400 351.983 C 217.610 352.385,219.320 352.993,220.200 353.333 C 221.080 353.674,227.290 355.862,234.000 358.195 C 249.066 363.434,248.434 363.211,249.400 363.614 C 249.840 363.797,251.370 364.331,252.800 364.800 C 254.230 365.269,255.760 365.812,256.200 366.006 C 256.640 366.201,257.810 366.630,258.800 366.960 C 259.790 367.291,263.210 368.484,266.400 369.612 C 278.519 373.899,280.875 374.433,284.022 373.606 C 288.898 372.324,291.486 368.812,295.963 357.400 C 297.344 353.880,298.620 350.640,298.799 350.200 C 298.978 349.760,299.663 347.960,300.322 346.200 C 300.982 344.440,302.430 340.660,303.542 337.800 C 304.653 334.940,306.749 329.450,308.200 325.600 C 310.716 318.921,313.705 311.112,314.400 309.400 C 314.579 308.960,315.479 306.620,316.400 304.200 C 317.321 301.780,318.225 299.440,318.407 299.000 C 318.699 298.298,325.082 281.543,328.466 272.600 C 329.131 270.840,329.839 268.995,330.038 268.500 C 330.237 268.005,330.563 267.195,330.762 266.700 C 330.961 266.205,331.698 264.270,332.400 262.400 C 333.102 260.530,333.839 258.595,334.038 258.100 C 334.237 257.605,334.563 256.795,334.762 256.300 C 334.961 255.805,335.671 253.960,336.339 252.200 C 337.007 250.440,338.928 245.400,340.608 241.000 C 342.287 236.600,344.205 231.560,344.869 229.800 C 345.533 228.040,346.239 226.195,346.438 225.700 C 346.637 225.205,346.963 224.395,347.162 223.900 C 347.361 223.405,348.098 221.470,348.800 219.600 C 349.502 217.730,350.263 215.750,350.492 215.200 C 350.981 214.021,351.143 213.605,352.738 209.400 C 353.405 207.640,355.501 202.150,357.395 197.200 C 359.289 192.250,361.207 187.210,361.658 186.000 C 362.109 184.790,362.640 183.395,362.839 182.900 C 363.038 182.405,363.363 181.595,363.562 181.100 C 363.762 180.605,364.679 178.220,365.600 175.800 C 366.521 173.380,367.421 171.040,367.599 170.600 C 367.778 170.160,368.472 168.360,369.143 166.600 C 369.814 164.840,372.187 158.630,374.417 152.800 C 380.883 135.893,381.643 133.119,380.786 129.533 C 379.743 125.160,376.339 121.471,371.140 119.073 C 369.027 118.099,368.800 118.199,368.800 120.100 C 368.800 137.928,350.717 144.113,343.049 128.908 C 339.956 122.773,339.403 111.600,342.194 111.600 C 344.008 111.600,344.239 112.133,344.530 117.000 C 345.344 130.595,353.572 137.891,360.605 131.252 C 364.339 127.727,366.455 117.375,363.707 116.074 C 361.992 115.262,361.200 115.667,361.200 117.357 C 361.200 122.193,358.637 126.200,355.546 126.199 C 351.089 126.198,349.344 122.695,348.292 111.635 C 348.191 110.581,348.147 110.561,337.800 107.010 C 334.940 106.028,329.990 104.309,326.800 103.190 C 323.610 102.071,320.010 100.819,318.800 100.410 C 317.590 100.000,312.640 98.287,307.800 96.602 C 296.061 92.516,290.413 90.573,286.800 89.376 C 285.150 88.829,283.487 88.206,283.105 87.991 C 282.723 87.776,282.136 87.600,281.800 87.600 C 281.464 87.600,280.877 87.424,280.495 87.209 C 280.113 86.994,278.450 86.371,276.800 85.825 C 275.150 85.279,270.650 83.730,266.800 82.383 C 252.354 77.330,229.091 69.520,225.200 68.417 C 224.210 68.136,222.860 67.737,222.200 67.530 C 220.564 67.015,214.519 66.769,212.800 67.146 M231.681 100.365 C 232.187 100.566,233.680 101.123,235.000 101.604 C 236.320 102.085,237.760 102.624,238.200 102.801 C 238.640 102.979,240.890 103.846,243.200 104.727 C 256.562 109.823,274.886 116.893,276.800 117.690 C 277.939 118.165,277.668 118.060,284.600 120.725 C 300.564 126.865,307.909 129.705,308.800 130.083 C 309.350 130.316,310.160 130.646,310.600 130.817 C 311.040 130.987,314.190 132.223,317.600 133.564 C 321.010 134.905,323.937 136.002,324.104 136.001 C 324.272 136.001,325.172 136.347,326.104 136.771 C 327.037 137.194,329.600 138.204,331.800 139.014 C 334.000 139.824,337.559 141.187,339.708 142.044 C 342.017 142.963,344.287 143.600,345.255 143.600 C 347.911 143.600,350.000 145.948,350.000 148.933 C 350.000 155.503,343.934 169.503,338.659 175.108 C 335.833 178.111,334.247 177.845,313.600 170.915 C 310.630 169.918,307.660 168.961,307.000 168.788 C 306.340 168.616,300.220 166.554,293.400 164.206 C 286.580 161.859,279.470 159.419,277.600 158.785 C 275.730 158.151,272.130 156.893,269.600 155.990 C 267.070 155.087,264.010 154.014,262.800 153.605 C 261.590 153.197,259.070 152.297,257.200 151.605 C 255.330 150.913,252.990 150.071,252.000 149.734 C 249.788 148.980,239.616 145.359,234.200 143.397 C 232.000 142.601,229.210 141.590,228.000 141.152 C 226.790 140.715,224.990 140.088,224.000 139.760 C 217.674 137.666,215.702 135.720,216.227 132.091 C 216.473 130.396,221.778 108.942,222.757 105.686 C 224.135 101.102,227.894 98.861,231.681 100.365 M352.408 112.850 C 352.436 114.757,353.595 120.133,354.167 121.005 C 355.579 123.160,356.766 121.411,357.415 116.219 L 357.692 113.998 356.225 113.385 C 353.912 112.418,352.399 112.206,352.408 112.850 M88.889 137.490 C 85.325 137.931,83.400 142.072,85.157 145.516 C 88.110 151.300,94.397 149.180,94.397 142.400 C 94.397 137.784,93.437 136.928,88.889 137.490 M221.123 163.038 C 230.295 166.689,238.160 169.831,238.600 170.021 C 239.632 170.467,251.272 174.944,255.300 176.445 C 258.874 177.777,263.695 179.582,268.000 181.200 C 276.851 184.527,282.051 186.430,292.800 190.274 C 296.210 191.493,300.980 193.199,303.400 194.065 C 305.820 194.931,309.690 196.267,312.000 197.035 C 314.310 197.802,316.560 198.598,317.000 198.802 C 317.440 199.006,319.301 199.658,321.136 200.251 C 325.472 201.653,326.473 202.636,324.702 203.753 C 324.252 204.037,323.768 204.024,323.126 203.710 C 322.105 203.211,318.034 201.753,312.800 200.014 C 310.146 199.132,297.021 194.524,290.000 192.009 C 284.640 190.089,279.653 188.274,279.000 188.006 C 278.560 187.826,277.210 187.318,276.000 186.879 C 273.953 186.135,272.157 185.464,264.100 182.434 C 262.395 181.793,258.750 180.422,256.000 179.388 C 249.843 177.072,238.953 172.887,237.600 172.315 C 237.050 172.083,236.240 171.756,235.800 171.588 C 229.541 169.203,203.270 158.591,202.900 158.298 C 201.981 157.571,202.303 156.400,203.423 156.400 C 203.985 156.400,211.950 159.387,221.123 163.038 M198.000 177.879 C 198.330 177.985,198.960 178.219,199.400 178.398 C 199.840 178.577,201.685 179.281,203.500 179.962 C 205.315 180.643,208.285 181.757,210.100 182.438 C 211.915 183.119,213.805 183.839,214.300 184.038 C 214.795 184.237,215.605 184.563,216.100 184.763 C 218.084 185.564,222.648 187.283,231.600 190.600 C 236.768 192.515,242.168 194.531,243.598 195.080 C 245.029 195.628,247.100 196.402,248.200 196.799 C 249.300 197.196,251.730 198.096,253.600 198.800 C 255.470 199.504,257.945 200.422,259.100 200.840 C 262.259 201.984,264.940 202.962,269.800 204.745 C 272.220 205.633,276.180 207.069,278.600 207.935 C 281.020 208.802,285.070 210.266,287.600 211.187 C 290.130 212.108,292.650 213.010,293.200 213.191 C 293.750 213.372,296.270 214.268,298.800 215.182 C 301.330 216.096,304.210 217.113,305.200 217.442 C 306.190 217.771,307.360 218.200,307.800 218.396 C 308.240 218.592,310.465 219.392,312.744 220.175 C 318.241 222.063,319.000 222.455,319.000 223.405 C 319.000 224.799,316.025 224.406,311.400 222.401 C 310.960 222.210,308.980 221.489,307.000 220.798 C 305.020 220.107,302.500 219.208,301.400 218.800 C 300.300 218.392,297.870 217.518,296.000 216.858 C 289.739 214.649,281.432 211.664,278.000 210.390 C 276.130 209.696,274.150 208.981,273.600 208.800 C 273.050 208.619,271.070 207.899,269.200 207.200 C 267.330 206.501,265.350 205.781,264.800 205.600 C 264.250 205.419,262.270 204.699,260.400 204.000 C 258.530 203.301,256.550 202.586,256.000 202.412 C 255.450 202.238,253.830 201.636,252.400 201.074 C 250.290 200.246,239.367 196.178,227.000 191.616 C 224.614 190.736,216.575 187.676,215.300 187.162 C 214.805 186.963,213.995 186.637,213.500 186.438 C 212.287 185.950,207.448 184.121,200.200 181.410 C 192.291 178.451,192.416 178.508,192.124 177.746 C 191.596 176.371,193.083 175.965,195.344 176.866 C 196.475 177.316,197.670 177.772,198.000 177.879 M249.800 232.400 C 249.936 232.620,250.309 232.800,250.628 232.800 C 250.947 232.800,252.062 233.181,253.104 233.647 C 255.859 234.876,256.623 235.195,265.000 238.599 C 269.180 240.298,273.590 242.102,274.800 242.607 C 276.010 243.113,282.130 245.537,288.400 247.995 C 302.111 253.368,303.503 253.970,303.756 254.630 C 304.090 255.501,302.944 256.095,301.530 255.785 C 300.223 255.498,299.768 255.322,298.105 254.462 C 297.613 254.208,297.026 254.000,296.801 254.000 C 296.576 254.000,295.628 253.656,294.696 253.236 C 293.763 252.816,287.150 250.180,280.000 247.378 C 272.850 244.576,266.829 242.130,266.620 241.942 C 266.411 241.754,266.004 241.600,265.716 241.600 C 265.427 241.600,264.338 241.219,263.296 240.753 C 260.105 239.329,259.085 238.896,256.807 238.000 C 255.601 237.526,253.711 236.728,252.607 236.226 C 251.503 235.724,249.902 235.064,249.050 234.758 C 247.420 234.174,246.963 233.596,247.345 232.600 C 247.602 231.928,249.417 231.780,249.800 232.400 M210.926 265.750 C 215.606 267.820,216.122 271.403,212.235 274.832 C 207.156 279.313,207.215 279.088,211.296 278.419 C 216.249 277.608,222.400 279.767,222.400 282.318 C 222.400 282.716,221.466 283.738,220.300 284.616 C 216.924 287.156,216.928 287.064,220.181 287.310 C 224.020 287.600,226.512 288.981,227.313 291.262 C 227.561 291.968,226.489 293.200,225.627 293.200 C 223.623 293.200,216.251 298.380,217.066 299.215 C 217.884 300.052,224.306 300.495,229.047 300.040 C 233.205 299.642,234.470 299.431,239.000 298.384 C 244.317 297.154,245.600 297.195,245.600 298.590 C 245.600 299.370,245.160 299.580,241.850 300.388 C 235.828 301.857,233.796 303.458,237.109 304.122 C 240.773 304.857,245.200 306.890,245.200 307.838 C 245.200 309.133,243.858 309.116,240.198 307.774 C 238.659 307.210,236.050 306.292,234.400 305.735 C 231.052 304.603,230.400 304.198,230.400 303.251 C 230.400 302.680,229.698 302.600,224.700 302.600 C 217.520 302.600,212.800 301.429,212.800 299.648 C 212.800 298.195,219.100 293.097,222.712 291.627 L 224.025 291.093 223.112 290.446 C 220.307 288.459,212.608 290.450,205.084 295.107 C 198.606 299.116,198.160 299.347,197.417 299.062 C 195.831 298.453,201.001 292.948,203.281 292.816 C 204.858 292.725,218.600 283.109,218.600 282.097 C 218.600 280.524,211.086 280.476,205.352 282.013 C 201.690 282.994,201.702 282.988,196.513 286.463 C 194.266 287.968,192.313 289.200,192.175 289.200 C 192.037 289.200,191.446 289.537,190.862 289.949 C 185.536 293.708,181.882 293.097,186.300 289.186 C 189.727 286.153,197.915 281.200,199.503 281.200 C 199.920 281.200,205.599 277.050,209.083 274.200 C 213.145 270.877,213.293 269.850,209.965 268.101 C 206.487 266.272,200.727 267.246,193.800 270.833 C 187.193 274.254,183.449 276.593,177.720 280.881 C 173.920 283.724,172.600 284.138,172.600 282.488 C 172.600 280.399,189.550 269.407,197.200 266.535 C 201.330 264.984,201.803 264.885,205.289 264.843 C 208.153 264.808,209.162 264.970,210.926 265.750 M167.496 292.640 C 168.983 293.212,172.540 294.578,175.400 295.677 C 178.260 296.776,180.960 297.821,181.400 298.000 C 181.840 298.179,184.180 299.079,186.600 300.000 C 189.020 300.921,191.360 301.821,191.800 302.000 C 193.034 302.502,202.331 306.072,209.000 308.606 C 219.706 312.672,226.449 315.264,228.000 315.908 C 228.550 316.137,230.530 316.898,232.400 317.600 C 234.270 318.302,236.160 319.024,236.600 319.204 C 237.040 319.385,239.560 320.356,242.200 321.363 C 258.010 327.394,257.000 326.941,257.000 328.004 C 257.000 329.619,256.235 329.426,244.971 324.972 C 239.047 322.629,233.727 320.571,233.149 320.398 C 232.571 320.225,231.491 319.815,230.749 319.486 C 230.007 319.157,227.420 318.131,225.000 317.207 C 222.580 316.282,220.240 315.375,219.800 315.192 C 218.669 314.723,211.496 312.004,205.600 309.810 C 202.850 308.787,200.240 307.791,199.800 307.595 C 199.360 307.400,197.020 306.497,194.600 305.588 C 186.482 302.538,183.805 301.526,183.000 301.200 C 182.560 301.022,180.760 300.334,179.000 299.671 C 163.540 293.847,162.497 293.366,162.922 292.258 C 163.274 291.343,164.358 291.433,167.496 292.640 " stroke="none" fill="#04abfb" fill-rule="evenodd"></path><path id="path4" d="M225.922 100.830 C 223.495 102.642,223.391 102.926,219.432 118.600 C 214.831 136.810,214.811 136.718,224.000 139.760 C 224.990 140.088,226.790 140.715,228.000 141.152 C 229.210 141.590,232.000 142.601,234.200 143.397 C 239.616 145.359,249.788 148.980,252.000 149.734 C 252.990 150.071,255.330 150.913,257.200 151.605 C 259.070 152.297,261.590 153.197,262.800 153.605 C 264.010 154.014,267.070 155.087,269.600 155.990 C 272.130 156.893,275.730 158.151,277.600 158.785 C 279.470 159.419,286.580 161.859,293.400 164.206 C 300.220 166.554,306.340 168.616,307.000 168.788 C 307.660 168.961,310.630 169.918,313.600 170.915 C 334.247 177.845,335.833 178.111,338.659 175.108 C 343.934 169.503,350.000 155.503,350.000 148.933 C 350.000 145.948,347.911 143.600,345.255 143.600 C 344.287 143.600,342.017 142.963,339.708 142.044 C 337.559 141.187,334.000 139.824,331.800 139.014 C 329.600 138.204,327.037 137.194,326.104 136.771 C 325.172 136.347,324.272 136.001,324.104 136.001 C 323.937 136.002,321.010 134.905,317.600 133.564 C 314.190 132.223,311.040 130.987,310.600 130.817 C 310.160 130.646,309.350 130.316,308.800 130.083 C 307.909 129.705,300.564 126.865,284.600 120.725 C 277.668 118.060,277.939 118.165,276.800 117.690 C 274.886 116.893,256.562 109.823,243.200 104.727 C 240.890 103.846,238.640 102.979,238.200 102.801 C 237.760 102.624,236.320 102.085,235.000 101.604 C 233.680 101.123,232.187 100.566,231.681 100.365 C 230.054 99.719,227.090 99.958,225.922 100.830 M233.400 125.178 C 234.988 125.804,236.614 126.500,237.295 126.847 C 237.677 127.041,238.264 127.200,238.600 127.200 C 238.936 127.200,239.523 127.359,239.905 127.553 C 240.287 127.748,241.050 128.084,241.600 128.300 C 242.150 128.516,243.050 128.879,243.600 129.107 C 244.150 129.335,245.680 129.917,247.000 130.400 C 248.320 130.883,249.760 131.428,250.200 131.611 C 250.640 131.793,252.080 132.329,253.400 132.800 C 254.720 133.272,258.410 134.646,261.600 135.855 C 264.790 137.064,268.390 138.419,269.600 138.865 C 270.810 139.312,272.250 139.865,272.800 140.093 C 275.362 141.154,276.938 141.761,278.800 142.400 C 279.570 142.664,280.650 143.067,281.200 143.294 C 281.750 143.521,282.605 143.863,283.100 144.054 C 283.595 144.244,284.405 144.562,284.900 144.760 C 285.395 144.957,286.430 145.336,287.200 145.600 C 287.970 145.864,289.050 146.267,289.600 146.494 C 290.856 147.013,291.450 147.242,295.400 148.728 C 297.160 149.390,300.850 150.780,303.600 151.816 C 306.350 152.852,310.490 154.411,312.800 155.280 C 315.110 156.149,317.360 157.008,317.800 157.190 C 318.240 157.371,319.230 157.736,320.000 158.000 C 321.693 158.582,323.160 159.171,324.095 159.647 C 324.477 159.841,324.974 160.000,325.199 160.000 C 326.725 160.000,329.237 161.761,329.121 162.751 C 328.921 164.475,327.244 164.226,320.800 161.514 C 319.435 160.939,318.450 160.567,316.800 160.000 C 316.030 159.736,314.950 159.333,314.400 159.106 C 313.850 158.879,312.995 158.537,312.500 158.346 C 310.751 157.673,309.392 157.103,308.705 156.753 C 308.323 156.559,307.736 156.400,307.400 156.400 C 307.064 156.400,306.477 156.241,306.095 156.047 C 305.145 155.564,303.829 155.035,301.000 154.000 C 299.680 153.517,298.240 152.973,297.800 152.791 C 297.360 152.609,295.020 151.721,292.600 150.818 C 283.626 147.470,280.580 146.325,279.800 146.005 C 279.360 145.824,277.470 145.102,275.600 144.400 C 271.488 142.857,270.884 142.624,269.600 142.094 C 269.050 141.867,267.970 141.464,267.200 141.200 C 266.430 140.936,265.440 140.575,265.000 140.398 C 264.560 140.221,262.670 139.502,260.800 138.800 C 258.930 138.098,257.040 137.374,256.600 137.192 C 256.160 137.009,253.550 136.018,250.800 134.989 C 248.050 133.960,244.360 132.580,242.600 131.921 C 240.840 131.263,239.040 130.578,238.600 130.400 C 238.160 130.222,236.270 129.505,234.400 128.807 C 229.943 127.144,229.823 127.073,229.665 126.004 C 229.439 124.475,230.835 124.166,233.400 125.178 M162.922 292.258 C 162.497 293.366,163.540 293.847,179.000 299.671 C 180.760 300.334,182.560 301.022,183.000 301.200 C 183.805 301.526,186.482 302.538,194.600 305.588 C 197.020 306.497,199.360 307.400,199.800 307.595 C 200.240 307.791,202.850 308.787,205.600 309.810 C 211.496 312.004,218.669 314.723,219.800 315.192 C 220.240 315.375,222.580 316.282,225.000 317.207 C 227.420 318.131,230.007 319.157,230.749 319.486 C 231.491 319.815,232.571 320.225,233.149 320.398 C 233.727 320.571,239.047 322.629,244.971 324.972 C 256.235 329.426,257.000 329.619,257.000 328.004 C 257.000 326.941,258.010 327.394,242.200 321.363 C 239.560 320.356,237.040 319.385,236.600 319.204 C 236.160 319.024,234.270 318.302,232.400 317.600 C 230.530 316.898,228.550 316.137,228.000 315.908 C 226.449 315.264,219.706 312.672,209.000 308.606 C 202.331 306.072,193.034 302.502,191.800 302.000 C 191.360 301.821,189.020 300.921,186.600 300.000 C 184.180 299.079,181.840 298.179,181.400 298.000 C 180.960 297.821,178.260 296.776,175.400 295.677 C 172.540 294.578,168.983 293.212,167.496 292.640 C 164.358 291.433,163.274 291.343,162.922 292.258 " stroke="none" fill="#0474fc" fill-rule="evenodd"></path></g></svg>