<svg id="spy" enable-background="new 0 0 300 300" height="512" viewBox="0 0 300 300" width="512" xmlns="http://www.w3.org/2000/svg"><g><path d="m229.14 158.592 8-8c1.562-1.562 1.562-4.094 0-5.656s-4.094-1.562-5.656 0l-8 8c-1.562 1.562-1.562 4.094 0 5.656.781.781 1.805 1.172 2.828 1.172s2.046-.39 2.828-1.172z"/><path d="m242.312 163.764h-12c-2.211 0-4 1.791-4 4s1.789 4 4 4h12c2.211 0 4-1.791 4-4s-1.79-4-4-4z"/><path d="m214.312 135.764c-2.211 0-4 1.791-4 4v12c0 2.209 1.789 4 4 4s4-1.791 4-4v-12c0-2.209-1.79-4-4-4z"/><path d="m248.312 81.235c-2.501 0-4.529 2.028-4.529 4.53 0 2.501 2.028 4.529 4.529 4.529s4.529-2.028 4.529-4.529c0-2.502-2.028-4.53-4.529-4.53z"/><path d="m64.312 34.294c2.501 0 4.529-2.028 4.529-4.529 0-2.502-2.028-4.53-4.529-4.53s-4.529 2.028-4.529 4.53c-.001 2.501 2.027 4.529 4.529 4.529z"/><circle cx="152.312" cy="129.764" r="4"/><circle cx="112.312" cy="129.764" r="4"/><path d="m186.312 90.159c17.836-6.481 27.152-15.908 27.152-25.016 0-3.283-1.188-6.115-3.438-8.193-5.379-4.979-15.845-5.266-34.16-3.887l-4.766-19.959c-.781-3.258-2.934-6.014-5.902-7.562-2.973-1.549-6.473-1.727-9.582-.498l-20.492 8.088c-3.102 1.227-6.523 1.227-9.625 0l-20.492-8.088c-3.117-1.225-6.609-1.051-9.582.498-2.969 1.549-5.121 4.305-5.902 7.564l-4.854 20.327c-17.789-1.596-28.358-2.066-33.958 3.044-2.355 2.148-3.551 5.064-3.551 8.666 0 9.798 10.831 19.948 31.407 26.42 0 0 .05 17.711.05 18.69-2.406.652-4.598 1.943-6.379 3.791-2.66 2.758-4.051 6.391-3.914 10.227.148 4.279 2.578 8.412 6.492 11.057 2.477 1.67 4.934 2.445 7.648 2.441 1.166 4.283 2.849 8.365 4.926 12.262-1.573-.423-3.242-1-5.031-1.766-1.695-.729-4.133-.289-5.238 1.201-1.105 1.486-.906 3.82.281 5.238.078.094.237.233.346.344l-13.701 9.419c-1.02.701-1.656 1.83-1.727 3.064-.074 1.232.43 2.43 1.359 3.242l21.725 19.009-6.971 3.169c-14.652 6.66-24.121 21.541-24.121 37.91v32.902c0 2.209 1.789 4 4 4h17.236l.381 4.35c.18 2.064 1.91 3.65 3.984 3.65h100.797c2.074 0 3.805-1.586 3.984-3.65l.381-4.35h17.236c2.211 0 4-1.791 4-4v-32.902c0-16.369-9.469-31.25-24.121-37.91l-5.265-2.393 23.929-19.707c.984-.811 1.523-2.043 1.449-3.316-.07-1.273-.746-2.438-1.82-3.129l-13.935-9.018c.283-.261.513-.494.673-.685 1.188-1.418 1.387-3.752.281-5.238-.895-1.205-2.797-2.26-5.238-1.201-1.959.839-3.767 1.437-5.469 1.867 2.171-3.925 3.933-8.046 5.168-12.375 2.805.104 5.109-.648 7.52-2.15 3.715-2.312 6.227-6.082 6.719-10.084.496-4.008-.746-8.027-3.398-11.029-1.824-2.061-4.191-3.518-6.793-4.23-.008-.702.301-20.104.301-20.104zm-8 11.496c-12.02 8.811-25.609 12.117-38.465 9.287-8.648-1.898-16.151-6.466-21.475-12.873 3.85.194 7.795.326 11.939.326 19.242 0 35.264-2.201 48-5.73v8.99zm-81.008-66.688c.242-1.02.891-1.846 1.816-2.328.934-.486 1.973-.539 2.949-.154l20.492 8.088c5 1.973 10.5 1.973 15.5 0l20.492-8.088c.977-.385 2.016-.332 2.949.154.926.482 1.574 1.309 1.816 2.326l7.02 29.389c-28.043 10.104-54.301 10.133-80.078.096zm-42.145 30.176c0-1.682.504-2.357.941-2.758 3.22-2.934 14.759-2.162 26.691-1.096l-1.109 4.645c-.453 1.902.535 3.855 2.336 4.615 14.703 6.203 29.84 9.303 45.309 9.303 15.43 0 31.188-3.086 47.164-9.258 1.867-.721 2.914-2.713 2.449-4.66l-1.194-5.002c9.699-.73 23.235-1.451 26.851 1.893.43.395.867.98.867 2.318 0 11.943-30.863 25.252-75.152 25.252-6.726 0-13.095-.339-19.141-.901-.019-.003-.032-.018-.051-.021-.088-.014-.176-.002-.265-.009-33.585-3.181-55.696-14.223-55.696-24.321zm44.309 31.084c-3.853 1.783-8.204 2.889-12.836 3.172-.007-1.756-.025-3.658-.043-5.603 3.986.953 8.314 1.752 12.879 2.431zm-14.843 63.801c4.313 2.601 10.131 5.445 16.596 7.314 6.017 5.155 12.89 9.023 20.465 11.463 1.447.465 2.926.803 4.422 1.046v23.913h-12.754c-.127-.149-.2-.327-.352-.459l-40.184-35.162zm39.511 11.162c-1.862-.6-3.664-1.322-5.426-2.116 3.428-.407 6.822-1.275 10.059-2.894 1.332-.666 2.512-1.406 3.543-2.229 1.031.822 2.211 1.562 3.543 2.229 2.838 1.418 5.797 2.259 8.791 2.731-1.326.556-2.671 1.076-4.049 1.523l-1.777.574c-4.973 1.61-10.051 1.67-14.684.182zm15.297-12.166c-1.762-.881-2.984-1.889-3.734-3.082-.73-1.166-2.012-1.873-3.387-1.873s-2.656.707-3.387 1.873c-.75 1.193-1.973 2.201-3.734 3.082-8.137 4.074-17.805 2.352-25.805-.686 6.629-1.391 11.613-5.02 15.758-8.037 3.699-2.695 6.895-5.021 10.062-5.021 1.535 0 2.953.727 3.898 1.992 1.508 2.027 4.906 2.027 6.414 0 .945-1.266 2.363-1.992 3.898-1.992 3.168 0 6.363 2.326 10.062 5.021 4.145 3.018 9.129 6.646 15.758 8.037-7.987 3.04-17.659 4.756-25.803.686zm-57.688 41.209 10.267-4.667 9.37 8.199h-25.467c1.816-1.346 3.73-2.577 5.83-3.532zm-19.433 59.531v-28.902c0-8.263 2.974-16.051 8.077-22.043l4.459 50.946h-12.536zm21.265 8-4.898-56h103.266l-4.898 56zm114.735-36.902v28.902h-12.536l4.459-50.946c5.103 5.993 8.077 13.781 8.077 22.044zm-19.434-30.629c2.101.955 4.014 2.186 5.83 3.531h-23.817l9.16-7.543zm12.672-32.08-42.594 35.076c-.186.152-.285.359-.436.535h-14.412v-23.745c2.397-.229 4.8-.631 7.176-1.402l1.777-.574c6.967-2.258 13.368-5.743 19.042-10.332 6.717-1.774 12.829-4.678 17.381-7.368zm-4.742-48.361c1.156 1.307 1.672 2.994 1.457 4.754-.203 1.625-1.324 3.221-3.008 4.27-1.68 1.049-3.105 1.217-4.926.572-1.086-.387-2.281-.285-3.281.277-1 .559-1.715 1.521-1.961 2.643-1.433 6.593-4.142 12.715-7.96 18.265-5.003-.975-8.913-3.805-12.938-6.738-4.426-3.223-9-6.555-14.773-6.555-2.578 0-5.027.758-7.105 2.15-2.078-1.393-4.527-2.15-7.105-2.15-5.773 0-10.348 3.332-14.773 6.555-4.138 3.013-8.147 5.93-13.354 6.824-3.709-5.565-6.329-11.682-7.678-18.262-.23-1.121-.93-2.092-1.922-2.662-.992-.572-2.184-.693-3.273-.324-1.547.523-2.977.594-4.914-.715-1.773-1.199-2.914-3.002-2.977-4.709-.059-1.648.539-3.207 1.68-4.389 1.141-1.184 2.672-1.834 4.316-1.834 1.082 0 2.16-.459 2.914-1.234 1.207-1.242 1.505-2.329 1.355-9.123 8.648-.427 16.649-3.175 22.915-7.834 6.48 9.674 16.676 16.559 28.637 19.184 3.582.787 7.207 1.174 10.832 1.174 9.893 0 19.81-2.935 29.052-8.524.066 3.026.389 4.115 1.409 5.147.75.762 1.816 1.211 2.887 1.211 1.716-.001 3.357.738 4.494 2.027z"/><circle cx="130.312" cy="243.764" r="12"/></g></svg>